<?xml version="1.0" encoding="utf-8"?>
<!-- Generator: Adobe Illustrator 26.0.3, SVG Export Plug-In . SVG Version: 6.00 Build 0)  -->
<svg version="1.1" id="Layer_1" xmlns="http://www.w3.org/2000/svg" xmlns:xlink="http://www.w3.org/1999/xlink" x="0px" y="0px"
	 viewBox="0 0 181 66" style="enable-background:new 0 0 181 66;" xml:space="preserve">
<style type="text/css">
	.st0{fill:#101010;}
	.st1{fill:#FFFFFF;}
	.st2{font-family:'ProductSans-Regular';}
	.st3{font-size:22px;}
</style>
<g id="Group_40673" transform="translate(-1149 -55)">
	<g id="Group_40671">
		<g id="Rectangle_1" transform="translate(1149 55)">
			<g>
				<path class="st0" d="M33.2,0h115c18.2,0,33,14.8,33,33l0,0c0,18.2-14.8,33-33,33h-115c-18.2,0-33-14.8-33-33l0,0
					C0.2,14.8,15,0,33.2,0z"/>
				<path class="st0" d="M33.2,3.5h115c16.3,0,29.5,13.2,29.5,29.5l0,0c0,16.3-13.2,29.5-29.5,29.5h-115C16.9,62.5,3.7,49.3,3.7,33
					l0,0C3.7,16.7,16.9,3.5,33.2,3.5z"/>
			</g>
		</g>
		<text transform="matrix(1 0 0 1 1186.6206 96)" class="st1 st2 st3">get the app</text>
	</g>
</g>
</svg>
