<svg xmlns="http://www.w3.org/2000/svg" width="32.718" height="32.718" viewBox="0 0 32.718 32.718">
  <g id="Group_40668" data-name="Group 40668" transform="translate(-272.144 -3608)">
    <g id="instagram" transform="translate(272.144 3608)">
      <g id="Group_11" data-name="Group 11">
        <g id="Group_10" data-name="Group 10">
          <path id="Path_20" data-name="Path 20" d="M22.494,0H10.224A10.226,10.226,0,0,0,0,10.224V22.494A10.226,10.226,0,0,0,10.224,32.718H22.494A10.226,10.226,0,0,0,32.718,22.494V10.224A10.226,10.226,0,0,0,22.494,0Zm7.157,22.494a7.165,7.165,0,0,1-7.157,7.157H10.224a7.165,7.165,0,0,1-7.157-7.157V10.224a7.165,7.165,0,0,1,7.157-7.157H22.494a7.165,7.165,0,0,1,7.157,7.157Z" fill="#fff"/>
        </g>
      </g>
      <g id="Group_13" data-name="Group 13" transform="translate(8.18 8.18)">
        <g id="Group_12" data-name="Group 12">
          <path id="Path_21" data-name="Path 21" d="M136.18,128a8.18,8.18,0,1,0,8.18,8.18A8.18,8.18,0,0,0,136.18,128Zm0,13.292a5.112,5.112,0,1,1,5.112-5.112A5.119,5.119,0,0,1,136.18,141.292Z" transform="translate(-128 -128)" fill="#fff"/>
        </g>
      </g>
      <g id="Group_15" data-name="Group 15" transform="translate(24.062 6.476)">
        <g id="Group_14" data-name="Group 14">
          <ellipse id="Ellipse_10" data-name="Ellipse 10" cx="1.09" cy="1.09" rx="1.09" ry="1.09" fill="#fff"/>
        </g>
      </g>
    </g>
  </g>
</svg>
