<svg xmlns="http://www.w3.org/2000/svg" width="32.718" height="32.718" viewBox="0 0 32.718 32.718">
  <g id="Group_40669" data-name="Group 40669" transform="translate(-332.016 -3608)">
    <g id="linkedin" transform="translate(332.016 3608)">
      <path id="Path_22" data-name="Path 22" d="M29.626,29.967h.008v-12c0-5.87-1.264-10.392-8.126-10.392A7.124,7.124,0,0,0,15.091,11.1H15V8.122H8.489V29.966h6.775V19.149c0-2.848.54-5.6,4.067-5.6,3.475,0,3.527,3.25,3.527,5.784V29.967Z" transform="translate(3.084 2.751)" fill="#fff"/>
      <path id="Path_23" data-name="Path 23" d="M.4,7.977H7.18V29.82H.4Z" transform="translate(0.144 2.898)" fill="#fff"/>
      <path id="Path_24" data-name="Path 24" d="M3.929,0A3.947,3.947,0,1,0,7.858,3.929,3.93,3.93,0,0,0,3.929,0Z" fill="#fff"/>
    </g>
  </g>
</svg>
