<svg xmlns="http://www.w3.org/2000/svg" width="32.718" height="32.718" viewBox="0 0 32.718 32.718">
  <g id="Group_40673" data-name="Group 40673" transform="translate(-453.947 -3608)">
    <g id="Group_40672" data-name="Group 40672">
      <g id="Group_40671" data-name="Group 40671">
        <g id="pinterest" transform="translate(453.947 3608)">
          <g id="Group_17" data-name="Group 17">
            <g id="Group_16" data-name="Group 16">
              <path id="Path_25" data-name="Path 25" d="M24.09,0H8.625A8.535,8.535,0,0,0,0,8.627V24.092a8.534,8.534,0,0,0,8.625,8.626H24.09a8.536,8.536,0,0,0,8.628-8.627V8.627A8.536,8.536,0,0,0,24.09,0Zm6.517,24.091a6.373,6.373,0,0,1-6.517,6.515H8.625a6.371,6.371,0,0,1-6.514-6.515V8.627A6.372,6.372,0,0,1,8.625,2.111H24.09a6.373,6.373,0,0,1,6.517,6.516Z" fill="#fff"/>
            </g>
          </g>
          <g id="Group_19" data-name="Group 19" transform="translate(8.626 6.694)">
            <g id="Group_18" data-name="Group 18">
              <path id="Path_26" data-name="Path 26" d="M138.968,101.472c-5.451,0-8.2,3.783-8.2,6.936,0,1.91.747,3.609,2.348,4.243a.544.544,0,0,0,.2.04.384.384,0,0,0,.379-.319c.054-.194.178-.685.235-.892a.526.526,0,0,0-.165-.617,3.138,3.138,0,0,1-.759-2.176,5.352,5.352,0,0,1,5.651-5.318c3.081,0,4.774,1.822,4.774,4.254,0,3.2-1.464,5.9-3.637,5.9a1.735,1.735,0,0,1-1.811-2.139,23.207,23.207,0,0,0,1.014-3.939,1.506,1.506,0,0,0-1.548-1.667c-1.229,0-2.214,1.227-2.214,2.874a4.164,4.164,0,0,0,.366,1.757s-1.254,5.148-1.474,6.051a12.042,12.042,0,0,0-.035,4.219.143.143,0,0,0,.148.122.155.155,0,0,0,.125-.059,11.714,11.714,0,0,0,2.072-3.634c.142-.494.807-3.051.807-3.051a3.322,3.322,0,0,0,2.8,1.383c3.688,0,6.19-3.252,6.19-7.607C146.233,104.54,143.351,101.472,138.968,101.472Z" transform="translate(-130.768 -101.472)" fill="#fff"/>
            </g>
          </g>
        </g>
      </g>
    </g>
  </g>
</svg>
