<?xml version="1.0" encoding="utf-8"?>
<!-- Generator: Adobe Illustrator 26.0.3, SVG Export Plug-In . SVG Version: 6.00 Build 0)  -->
<svg version="1.1" id="Layer_1" xmlns="http://www.w3.org/2000/svg" xmlns:xlink="http://www.w3.org/1999/xlink" x="0px" y="0px"
	 viewBox="0 0 196 55" style="enable-background:new 0 0 196 55;" xml:space="preserve">
<style type="text/css">
	.st0{enable-background:new    ;}
	.st1{fill:#FFFFFF;}
</style>
<g id="Group_40669" transform="translate(-961 -517)">
	<path id="Rectangle_7089" d="M967.1,517h184c3.3,0,6,2.7,6,6v43c0,3.3-2.7,6-6,6h-184c-3.3,0-6-2.7-6-6v-43
		C961.1,519.7,963.8,517,967.1,517z"/>
	<g class="st0">
		<path class="st1" d="M991,550.3c-1.5,0-2.7-0.5-3.6-1.5c-0.9-1-1.4-2.3-1.4-3.7c0-1.5,0.5-2.8,1.4-3.7c1-1,2.2-1.5,3.6-1.5
			c1,0,1.9,0.2,2.6,0.8s1.3,1.2,1.7,2.1l-1.7,0.7c-0.5-1.2-1.4-1.8-2.7-1.8c-0.8,0-1.6,0.3-2.2,1c-0.6,0.7-0.9,1.5-0.9,2.5
			s0.3,1.8,0.9,2.5c0.6,0.7,1.3,1,2.2,1c1.3,0,2.3-0.6,2.8-1.8l1.6,0.7c-0.4,0.9-0.9,1.6-1.7,2.1S992,550.3,991,550.3z"/>
		<path class="st1" d="M998.5,550h-1.8v-9.8h1.8v1.6h0.1c0.2-0.5,0.6-1,1.1-1.3c0.6-0.4,1.2-0.5,1.7-0.5c0.5,0,1,0.1,1.4,0.2
			l-0.6,1.8c-0.2-0.1-0.6-0.1-1.1-0.1c-0.7,0-1.3,0.3-1.8,0.8c-0.5,0.6-0.8,1.2-0.8,2V550z"/>
		<path class="st1" d="M1007.4,550.3c-1.4,0-2.6-0.5-3.6-1.5c-0.9-1-1.4-2.2-1.4-3.7c0-1.5,0.5-2.7,1.4-3.7c0.9-1,2.1-1.5,3.5-1.5
			c1.5,0,2.6,0.5,3.5,1.4s1.3,2.3,1.3,4l0,0.2h-7.7c0,1,0.3,1.7,1,2.3c0.6,0.6,1.3,0.9,2.2,0.9c1.2,0,2.1-0.6,2.8-1.8l1.6,0.8
			c-0.4,0.8-1,1.5-1.8,1.9C1009.3,550.1,1008.4,550.3,1007.4,550.3z M1004.5,543.9h5.6c-0.1-0.7-0.3-1.2-0.8-1.7
			c-0.5-0.4-1.2-0.7-2-0.7c-0.7,0-1.3,0.2-1.8,0.6S1004.6,543.2,1004.5,543.9z"/>
		<path class="st1" d="M1017.3,539.9c1.4,0,2.4,0.4,3.2,1.1c0.8,0.7,1.2,1.7,1.2,3v6h-1.8v-1.4h-0.1c-0.8,1.1-1.8,1.7-3,1.7
			c-1.1,0-2-0.3-2.7-1c-0.7-0.6-1.1-1.4-1.1-2.4c0-1,0.4-1.8,1.1-2.4s1.8-0.9,3.1-0.9c1.1,0,2,0.2,2.7,0.6v-0.4
			c0-0.6-0.3-1.2-0.8-1.6c-0.5-0.4-1.1-0.7-1.8-0.7c-1,0-1.8,0.4-2.4,1.3l-1.6-1C1014.2,540.5,1015.5,539.9,1017.3,539.9z
			 M1014.9,547c0,0.5,0.2,0.9,0.6,1.2c0.4,0.3,0.9,0.5,1.4,0.5c0.8,0,1.5-0.3,2.1-0.9c0.6-0.6,0.9-1.2,0.9-2
			c-0.6-0.5-1.4-0.7-2.4-0.7c-0.7,0-1.4,0.2-1.9,0.5C1015.2,546,1014.9,546.5,1014.9,547z"/>
		<path class="st1" d="M1027.2,550.2c-0.8,0-1.5-0.2-2-0.7c-0.5-0.5-0.8-1.2-0.8-2.1v-5.5h-1.7v-1.7h1.7v-3h1.8v3h2.4v1.7h-2.4v4.9
			c0,0.7,0.1,1.1,0.4,1.3c0.3,0.2,0.5,0.4,0.9,0.4c0.1,0,0.3,0,0.4-0.1c0.1,0,0.3-0.1,0.4-0.1l0.6,1.6
			C1028.4,550.1,1027.8,550.2,1027.2,550.2z"/>
		<path class="st1" d="M1034.4,550.3c-1.4,0-2.6-0.5-3.6-1.5c-0.9-1-1.4-2.2-1.4-3.7c0-1.5,0.5-2.7,1.4-3.7c0.9-1,2.1-1.5,3.5-1.5
			c1.5,0,2.6,0.5,3.5,1.4s1.3,2.3,1.3,4l0,0.2h-7.7c0,1,0.3,1.7,1,2.3c0.6,0.6,1.3,0.9,2.2,0.9c1.2,0,2.1-0.6,2.8-1.8l1.6,0.8
			c-0.4,0.8-1,1.5-1.8,1.9C1036.3,550.1,1035.4,550.3,1034.4,550.3z M1031.5,543.9h5.6c-0.1-0.7-0.3-1.2-0.8-1.7
			c-0.5-0.4-1.2-0.7-2-0.7c-0.7,0-1.3,0.2-1.8,0.6S1031.7,543.2,1031.5,543.9z"/>
		<path class="st1" d="M1049.4,550h-1.8l-4-9.8h2l2.9,7.6h0l2.9-7.6h2L1049.4,550z"/>
		<path class="st1" d="M1056.7,536.8c0,0.4-0.1,0.7-0.4,0.9c-0.3,0.3-0.6,0.4-0.9,0.4c-0.4,0-0.7-0.1-0.9-0.4
			c-0.3-0.3-0.4-0.6-0.4-0.9c0-0.4,0.1-0.7,0.4-0.9c0.3-0.3,0.6-0.4,0.9-0.4c0.4,0,0.7,0.1,0.9,0.4
			C1056.6,536.2,1056.7,536.5,1056.7,536.8z M1056.3,540.2v9.8h-1.8v-9.8H1056.3z"/>
		<path class="st1" d="M1062.5,550.3c-1.3,0-2.4-0.5-3.3-1.5c-0.9-1-1.4-2.3-1.4-3.7c0-1.4,0.5-2.7,1.4-3.7c0.9-1,2-1.5,3.3-1.5
			c0.7,0,1.4,0.2,2,0.5c0.6,0.3,1.1,0.7,1.4,1.2h0.1l-0.1-1.4v-4.5h1.8V550h-1.8v-1.4h-0.1c-0.3,0.5-0.8,0.9-1.4,1.2
			C1063.8,550.2,1063.2,550.3,1062.5,550.3z M1062.8,548.6c0.9,0,1.6-0.3,2.2-1c0.6-0.7,0.9-1.5,0.9-2.6c0-1-0.3-1.9-0.9-2.5
			c-0.6-0.7-1.3-1-2.2-1c-0.9,0-1.6,0.3-2.2,1c-0.6,0.7-0.9,1.5-0.9,2.5c0,1,0.3,1.9,0.9,2.5
			C1061.2,548.3,1061.9,548.6,1062.8,548.6z"/>
		<path class="st1" d="M1073.9,550.3c-1.4,0-2.6-0.5-3.6-1.5c-0.9-1-1.4-2.2-1.4-3.7c0-1.5,0.5-2.7,1.4-3.7c0.9-1,2.1-1.5,3.5-1.5
			c1.5,0,2.6,0.5,3.5,1.4s1.3,2.3,1.3,4l0,0.2h-7.7c0,1,0.3,1.7,1,2.3c0.6,0.6,1.3,0.9,2.2,0.9c1.2,0,2.1-0.6,2.8-1.8l1.6,0.8
			c-0.4,0.8-1,1.5-1.8,1.9C1075.8,550.1,1074.9,550.3,1073.9,550.3z M1071,543.9h5.6c-0.1-0.7-0.3-1.2-0.8-1.7
			c-0.5-0.4-1.2-0.7-2-0.7c-0.7,0-1.3,0.2-1.8,0.6S1071.2,543.2,1071,543.9z"/>
		<path class="st1" d="M1079.5,545.1c0-1.5,0.5-2.8,1.4-3.7c1-1,2.2-1.5,3.6-1.5s2.7,0.5,3.6,1.5c1,1,1.4,2.2,1.4,3.7
			c0,1.5-0.5,2.8-1.4,3.7c-0.9,1-2.1,1.5-3.6,1.5s-2.7-0.5-3.6-1.5C1080,547.9,1079.5,546.6,1079.5,545.1z M1081.4,545.1
			c0,1.1,0.3,1.9,0.9,2.6s1.4,1,2.3,1s1.7-0.3,2.3-1s0.9-1.5,0.9-2.6c0-1-0.3-1.9-0.9-2.5c-0.6-0.7-1.4-1-2.3-1s-1.7,0.3-2.3,1
			C1081.7,543.2,1081.4,544.1,1081.4,545.1z"/>
		<path class="st1" d="M1098.4,547.3c0,0.9-0.4,1.6-1.1,2.2c-0.7,0.6-1.7,0.9-2.8,0.9c-1,0-1.9-0.3-2.6-0.8c-0.7-0.5-1.3-1.2-1.6-2
			l1.6-0.7c0.2,0.6,0.6,1,1,1.4c0.5,0.3,1,0.5,1.5,0.5c0.6,0,1.1-0.1,1.5-0.4c0.4-0.3,0.6-0.6,0.6-0.9c0-0.6-0.5-1.1-1.4-1.4
			l-1.7-0.4c-1.9-0.5-2.9-1.4-2.9-2.8c0-0.9,0.4-1.6,1.1-2.1s1.7-0.8,2.8-0.8c0.9,0,1.7,0.2,2.4,0.6c0.7,0.4,1.2,1,1.5,1.7l-1.6,0.7
			c-0.2-0.4-0.5-0.7-0.9-1s-0.9-0.4-1.4-0.4c-0.5,0-0.9,0.1-1.3,0.4s-0.6,0.5-0.6,0.9c0,0.6,0.5,1,1.6,1.2l1.5,0.4
			C1097.5,544.8,1098.4,545.8,1098.4,547.3z"/>
		<path class="st1" d="M1103.6,550.2c-0.8,0-1.5-0.2-2-0.7c-0.5-0.5-0.8-1.2-0.8-2.1v-5.5h-1.7v-1.7h1.7v-3h1.8v3h2.4v1.7h-2.4v4.9
			c0,0.7,0.1,1.1,0.4,1.3c0.3,0.2,0.5,0.4,0.9,0.4c0.1,0,0.3,0,0.4-0.1c0.1,0,0.3-0.1,0.4-0.1l0.6,1.6
			C1104.8,550.1,1104.2,550.2,1103.6,550.2z"/>
		<path class="st1" d="M1105.8,545.1c0-1.5,0.5-2.8,1.4-3.7c1-1,2.2-1.5,3.6-1.5s2.7,0.5,3.6,1.5c1,1,1.4,2.2,1.4,3.7
			c0,1.5-0.5,2.8-1.4,3.7c-0.9,1-2.1,1.5-3.6,1.5s-2.7-0.5-3.6-1.5C1106.3,547.9,1105.8,546.6,1105.8,545.1z M1107.7,545.1
			c0,1.1,0.3,1.9,0.9,2.6s1.4,1,2.3,1s1.7-0.3,2.3-1s0.9-1.5,0.9-2.6c0-1-0.3-1.9-0.9-2.5c-0.6-0.7-1.4-1-2.3-1s-1.7,0.3-2.3,1
			C1108,543.2,1107.7,544.1,1107.7,545.1z"/>
		<path class="st1" d="M1119,550h-1.8v-9.8h1.8v1.6h0.1c0.2-0.5,0.6-1,1.1-1.3c0.6-0.4,1.2-0.5,1.7-0.5c0.5,0,1,0.1,1.4,0.2
			l-0.6,1.8c-0.2-0.1-0.6-0.1-1.1-0.1c-0.7,0-1.3,0.3-1.8,0.8c-0.5,0.6-0.8,1.2-0.8,2V550z"/>
		<path class="st1" d="M1127.9,550.3c-1.4,0-2.6-0.5-3.6-1.5c-0.9-1-1.4-2.2-1.4-3.7c0-1.5,0.5-2.7,1.4-3.7c0.9-1,2.1-1.5,3.5-1.5
			c1.5,0,2.6,0.5,3.5,1.4s1.3,2.3,1.3,4l0,0.2h-7.7c0,1,0.3,1.7,1,2.3c0.6,0.6,1.3,0.9,2.2,0.9c1.2,0,2.1-0.6,2.8-1.8l1.6,0.8
			c-0.4,0.8-1,1.5-1.8,1.9C1129.8,550.1,1128.9,550.3,1127.9,550.3z M1125,543.9h5.6c-0.1-0.7-0.3-1.2-0.8-1.7
			c-0.5-0.4-1.2-0.7-2-0.7c-0.7,0-1.3,0.2-1.8,0.6S1125.2,543.2,1125,543.9z"/>
	</g>
</g>
</svg>
