<svg xmlns="http://www.w3.org/2000/svg" xmlns:xlink="http://www.w3.org/1999/xlink" width="207.431" height="63.082" viewBox="0 0 207.431 63.082">
  <defs>
    <clipPath id="clip-path">
      <rect id="Rectangle_7087" data-name="Rectangle 7087" width="207.431" height="63.082" fill="#fff"/>
    </clipPath>
  </defs>
  <g id="Group_40677" data-name="Group 40677" transform="translate(-1642.069 -3015.148)">
    <g id="Group_40674" data-name="Group 40674" transform="translate(1642.069 3015.148)">
      <g id="Group_40655" data-name="Group 40655" transform="translate(0 0)" clip-path="url(#clip-path)">
        <path id="Path_63875" data-name="Path 63875" d="M199.413,1.423a6.6,6.6,0,0,1,6.6,6.6V55.063a6.6,6.6,0,0,1-6.6,6.6H8.018a6.6,6.6,0,0,1-6.6-6.6V8.018a6.6,6.6,0,0,1,6.6-6.6Zm0-1.423H8.018A8.018,8.018,0,0,0,0,8.018V55.063a8.018,8.018,0,0,0,8.018,8.018H199.413a8.018,8.018,0,0,0,8.018-8.018V8.018A8.018,8.018,0,0,0,199.413,0" fill="#fff"/>
        <path id="Path_63876" data-name="Path 63876" d="M143.4,149.857c-3.365,5.839-1.226,14.7,2.5,20.074,1.858,2.687,3.738,5.1,6.314,5.1.048,0,.1,0,.147,0a7.79,7.79,0,0,0,2.93-.781,8.026,8.026,0,0,1,3.472-.823,7.549,7.549,0,0,1,3.3.8,7,7,0,0,0,3.165.759c2.9-.054,4.683-2.656,6.254-4.951a21.941,21.941,0,0,0,2.74-5.613l.011-.035a.327.327,0,0,0-.174-.4l-.023-.01a8.316,8.316,0,0,1-5.04-7.616,8.561,8.561,0,0,1,4.045-7.157l.032-.02a.325.325,0,0,0,.092-.458,9.412,9.412,0,0,0-7.4-4.021,6.462,6.462,0,0,0-.645-.032,12.9,12.9,0,0,0-4.648,1.161,7.463,7.463,0,0,1-2.226.665,7.284,7.284,0,0,1-2.3-.673,11.16,11.16,0,0,0-4.059-1.031h-.1a9.951,9.951,0,0,0-8.377,5.071" transform="translate(-121.554 -124.082)" fill="#fff"/>
        <path id="Path_63877" data-name="Path 63877" d="M261.22,78.325a9.086,9.086,0,0,0-6,3.078,8.513,8.513,0,0,0-2.156,6.313.327.327,0,0,0,.3.283c.139.011.28.016.422.016a7.688,7.688,0,0,0,5.663-2.9,8.977,8.977,0,0,0,2.11-6.495.328.328,0,0,0-.338-.291" transform="translate(-217.016 -67.182)" fill="#fff"/>
        <path id="Path_63878" data-name="Path 63878" d="M477.064,77.149h3.9a5.708,5.708,0,0,1,2.725.634,4.633,4.633,0,0,1,1.852,1.753,5.212,5.212,0,0,1,0,5.084,4.634,4.634,0,0,1-1.852,1.753,5.709,5.709,0,0,1-2.725.634h-3.9Zm3.845,9.21a5.143,5.143,0,0,0,2.408-.542,3.878,3.878,0,0,0,1.605-1.514,4.676,4.676,0,0,0,0-4.45,3.879,3.879,0,0,0-1.605-1.514,5.145,5.145,0,0,0-2.408-.542h-3.126v8.562Z" transform="translate(-409.192 -66.173)" fill="#fff"/>
        <path id="Path_63879" data-name="Path 63879" d="M553.394,101.356a3.445,3.445,0,0,1-1.317-1.331,4.1,4.1,0,0,1,0-3.844,3.448,3.448,0,0,1,1.317-1.331,3.93,3.93,0,0,1,3.76,0,3.451,3.451,0,0,1,1.317,1.331,4.1,4.1,0,0,1,0,3.844,3.448,3.448,0,0,1-1.317,1.331,3.93,3.93,0,0,1-3.76,0m3.394-.549a2.832,2.832,0,0,0,1.056-1.1,3.521,3.521,0,0,0,0-3.211,2.836,2.836,0,0,0-1.056-1.1,3.1,3.1,0,0,0-3.028,0,2.832,2.832,0,0,0-1.056,1.1,3.521,3.521,0,0,0,0,3.211,2.828,2.828,0,0,0,1.056,1.1,3.1,3.1,0,0,0,3.028,0" transform="translate(-473.122 -80.945)" fill="#fff"/>
        <path id="Path_63880" data-name="Path 63880" d="M619.48,94.768l-2.788,7.351h-.662l-2.479-6.379-2.493,6.379h-.648l-2.788-7.351h.676l2.45,6.562,2.507-6.562h.606l2.493,6.548,2.479-6.548Z" transform="translate(-521.175 -81.285)" fill="#fff"/>
        <path id="Path_63881" data-name="Path 63881" d="M708.223,95.174a3.126,3.126,0,0,1,.8,2.309v4.3h-.7V97.54a2.61,2.61,0,0,0-.627-1.887A2.326,2.326,0,0,0,705.942,95a2.7,2.7,0,0,0-2.042.775,2.876,2.876,0,0,0-.746,2.084v3.915h-.7V94.427h.676v1.591a2.8,2.8,0,0,1,1.134-1.211,3.492,3.492,0,0,1,1.781-.437,2.949,2.949,0,0,1,2.183.8" transform="translate(-602.511 -80.945)" fill="#fff"/>
        <rect id="Rectangle_7086" data-name="Rectangle 7086" width="0.704" height="10.449" transform="translate(109.416 10.385)" fill="#fff"/>
        <path id="Path_63882" data-name="Path 63882" d="M791.051,101.356a3.445,3.445,0,0,1-1.317-1.331,4.1,4.1,0,0,1,0-3.844,3.448,3.448,0,0,1,1.317-1.331,3.93,3.93,0,0,1,3.76,0,3.452,3.452,0,0,1,1.317,1.331,4.1,4.1,0,0,1,0,3.844,3.448,3.448,0,0,1-1.317,1.331,3.93,3.93,0,0,1-3.76,0m3.394-.549a2.833,2.833,0,0,0,1.056-1.1,3.523,3.523,0,0,0,0-3.211,2.837,2.837,0,0,0-1.056-1.1,3.1,3.1,0,0,0-3.028,0,2.833,2.833,0,0,0-1.056,1.1,3.521,3.521,0,0,0,0,3.211,2.829,2.829,0,0,0,1.056,1.1,3.1,3.1,0,0,0,3.028,0" transform="translate(-676.967 -80.945)" fill="#fff"/>
        <path id="Path_63883" data-name="Path 63883" d="M856.656,95.069a2.7,2.7,0,0,1,.732,2.049v4.661h-.676v-1.31a2.445,2.445,0,0,1-1.028,1.007,3.409,3.409,0,0,1-1.619.359,2.985,2.985,0,0,1-1.937-.577,2,2,0,0,1-.056-3.007,3.147,3.147,0,0,1,2.091-.57h2.521V97.09a2.071,2.071,0,0,0-.556-1.563,2.257,2.257,0,0,0-1.626-.535,3.922,3.922,0,0,0-1.4.254,3.514,3.514,0,0,0-1.134.676l-.352-.507a3.916,3.916,0,0,1,1.324-.768,4.812,4.812,0,0,1,1.62-.275,2.926,2.926,0,0,1,2.1.7m-.937,5.767a2.571,2.571,0,0,0,.964-1.225v-1.38h-2.506a2.5,2.5,0,0,0-1.57.394,1.321,1.321,0,0,0-.486,1.084,1.357,1.357,0,0,0,.535,1.134,2.407,2.407,0,0,0,1.507.415,2.765,2.765,0,0,0,1.556-.422" transform="translate(-730.285 -80.946)" fill="#fff"/>
        <path id="Path_63884" data-name="Path 63884" d="M915.568,72.991V83.44h-.69V81.708a3.157,3.157,0,0,1-1.225,1.324,3.456,3.456,0,0,1-1.788.465,3.654,3.654,0,0,1-1.859-.479,3.424,3.424,0,0,1-1.3-1.324,3.889,3.889,0,0,1-.472-1.929,3.929,3.929,0,0,1,.472-1.936,3.365,3.365,0,0,1,1.3-1.324,3.7,3.7,0,0,1,1.859-.472,3.391,3.391,0,0,1,1.767.465,3.31,3.31,0,0,1,1.232,1.3v-4.8Zm-2.147,9.478a2.834,2.834,0,0,0,1.056-1.1,3.524,3.524,0,0,0,0-3.211,2.838,2.838,0,0,0-1.056-1.1,3.1,3.1,0,0,0-3.028,0,2.832,2.832,0,0,0-1.056,1.1,3.521,3.521,0,0,0,0,3.211,2.828,2.828,0,0,0,1.056,1.1,3.1,3.1,0,0,0,3.028,0" transform="translate(-779.016 -62.606)" fill="#fff"/>
        <path id="Path_63885" data-name="Path 63885" d="M1002.278,101.356a3.445,3.445,0,0,1-1.317-1.331,4.1,4.1,0,0,1,0-3.844,3.448,3.448,0,0,1,1.317-1.331,3.93,3.93,0,0,1,3.76,0,3.452,3.452,0,0,1,1.317,1.331,4.1,4.1,0,0,1,0,3.844,3.448,3.448,0,0,1-1.317,1.331,3.93,3.93,0,0,1-3.76,0m3.394-.549a2.832,2.832,0,0,0,1.056-1.1,3.522,3.522,0,0,0,0-3.211,2.836,2.836,0,0,0-1.056-1.1,3.1,3.1,0,0,0-3.028,0,2.832,2.832,0,0,0-1.056,1.1,3.521,3.521,0,0,0,0,3.211,2.828,2.828,0,0,0,1.056,1.1,3.1,3.1,0,0,0,3.028,0" transform="translate(-858.142 -80.945)" fill="#fff"/>
        <path id="Path_63886" data-name="Path 63886" d="M1073.268,95.174a3.125,3.125,0,0,1,.8,2.309v4.3h-.7V97.54a2.609,2.609,0,0,0-.627-1.887,2.326,2.326,0,0,0-1.753-.648,2.7,2.7,0,0,0-2.042.775,2.876,2.876,0,0,0-.746,2.084v3.915h-.7V94.427h.676v1.591a2.794,2.794,0,0,1,1.134-1.211,3.492,3.492,0,0,1,1.781-.437,2.949,2.949,0,0,1,2.183.8" transform="translate(-915.621 -80.945)" fill="#fff"/>
        <path id="Path_63887" data-name="Path 63887" d="M1155.892,91.976a1.769,1.769,0,0,1-.669.387,2.639,2.639,0,0,1-.838.134,1.984,1.984,0,0,1-1.479-.528,2,2,0,0,1-.521-1.472v-4.8h-1.352v-.606h1.352V83.484h.7v1.605h2.338v.606h-2.338v4.732a1.553,1.553,0,0,0,.345,1.091,1.323,1.323,0,0,0,1.021.373,1.635,1.635,0,0,0,1.141-.408Z" transform="translate(-987.274 -71.607)" fill="#fff"/>
        <path id="Path_63888" data-name="Path 63888" d="M1204.716,76.836a3.126,3.126,0,0,1,.8,2.309v4.3h-.7V79.2a2.61,2.61,0,0,0-.626-1.887,2.327,2.327,0,0,0-1.753-.648,2.7,2.7,0,0,0-2.042.775,2.877,2.877,0,0,0-.746,2.084V83.44h-.7V72.991h.7v4.633a2.7,2.7,0,0,1,1.127-1.176,3.563,3.563,0,0,1,1.76-.416,2.949,2.949,0,0,1,2.183.8" transform="translate(-1028.367 -62.606)" fill="#fff"/>
        <path id="Path_63889" data-name="Path 63889" d="M1267.025,98.273H1260.7a3.073,3.073,0,0,0,.437,1.528,2.8,2.8,0,0,0,1.105,1.035,3.324,3.324,0,0,0,1.57.366,3.361,3.361,0,0,0,1.331-.26,2.591,2.591,0,0,0,1.021-.768l.408.465a3.134,3.134,0,0,1-1.2.887,4.194,4.194,0,0,1-3.527-.169,3.469,3.469,0,0,1-1.345-1.324,3.8,3.8,0,0,1-.486-1.929,4,4,0,0,1,.458-1.922,3.378,3.378,0,0,1,1.26-1.331,3.643,3.643,0,0,1,3.6-.007,3.357,3.357,0,0,1,1.253,1.317,3.955,3.955,0,0,1,.458,1.915Zm-4.887-2.936a2.629,2.629,0,0,0-.993.972,3.161,3.161,0,0,0-.429,1.415h5.633a2.947,2.947,0,0,0-.423-1.408,2.734,2.734,0,0,0-2.394-1.324,2.817,2.817,0,0,0-1.394.345" transform="translate(-1080.749 -80.946)" fill="#fff"/>
        <path id="Path_63890" data-name="Path 63890" d="M470.112,221.555H461.69l-1.661,3.9H456.8l7.581-16.846h3.08l7.6,16.846H471.8Zm-1.035-2.455-3.177-7.364-3.153,7.364Z" transform="translate(-391.814 -178.929)" fill="#fff"/>
        <path id="Path_63891" data-name="Path 63891" d="M608.7,236.49a5.906,5.906,0,0,1,2.322,2.31,7.476,7.476,0,0,1,0,6.895,5.878,5.878,0,0,1-2.322,2.322,6.821,6.821,0,0,1-3.357.818,5.188,5.188,0,0,1-4.115-1.733v6.233h-3.008v-17.52h2.864V237.5a4.655,4.655,0,0,1,1.841-1.372,6.223,6.223,0,0,1,2.419-.457,6.825,6.825,0,0,1,3.357.818m-.963,8.664a4.494,4.494,0,0,0,0-5.824A3.637,3.637,0,0,0,605,238.223a3.871,3.871,0,0,0-1.949.493,3.567,3.567,0,0,0-1.372,1.408,4.691,4.691,0,0,0,0,4.236,3.562,3.562,0,0,0,1.372,1.408,3.867,3.867,0,0,0,1.949.493,3.636,3.636,0,0,0,2.732-1.107" transform="translate(-513.107 -202.143)" fill="#fff"/>
        <path id="Path_63892" data-name="Path 63892" d="M724.735,236.49a5.907,5.907,0,0,1,2.322,2.31,7.476,7.476,0,0,1,0,6.895,5.879,5.879,0,0,1-2.322,2.322,6.82,6.82,0,0,1-3.357.818,5.188,5.188,0,0,1-4.115-1.733v6.233h-3.008v-17.52h2.864V237.5a4.657,4.657,0,0,1,1.841-1.372,6.224,6.224,0,0,1,2.419-.457,6.825,6.825,0,0,1,3.357.818m-.963,8.664a4.494,4.494,0,0,0,0-5.824,3.637,3.637,0,0,0-2.731-1.107,3.87,3.87,0,0,0-1.949.493,3.566,3.566,0,0,0-1.372,1.408,4.688,4.688,0,0,0,0,4.236,3.561,3.561,0,0,0,1.372,1.408,3.866,3.866,0,0,0,1.949.493,3.636,3.636,0,0,0,2.731-1.107" transform="translate(-612.636 -202.143)" fill="#fff"/>
        <path id="Path_63893" data-name="Path 63893" d="M871.9,223.691a7.855,7.855,0,0,1-2.876-1.468l1.083-2.431a8.519,8.519,0,0,0,2.539,1.336,9.227,9.227,0,0,0,3.02.517,5.218,5.218,0,0,0,2.8-.6,1.823,1.823,0,0,0,.927-1.588,1.538,1.538,0,0,0-.517-1.191,3.641,3.641,0,0,0-1.312-.734q-.794-.264-2.166-.6a25.193,25.193,0,0,1-3.117-.915,5.126,5.126,0,0,1-2.046-1.432,3.856,3.856,0,0,1-.854-2.635,4.5,4.5,0,0,1,.758-2.539,5.131,5.131,0,0,1,2.286-1.817,9.263,9.263,0,0,1,3.742-.674,12.107,12.107,0,0,1,3.032.385,8.386,8.386,0,0,1,2.575,1.107l-.987,2.431a9.752,9.752,0,0,0-2.31-.987,8.654,8.654,0,0,0-2.334-.337,4.876,4.876,0,0,0-2.755.626,1.931,1.931,0,0,0-.9,1.661,1.5,1.5,0,0,0,.517,1.179,3.733,3.733,0,0,0,1.312.722q.794.265,2.166.6a22.806,22.806,0,0,1,3.08.9,5.279,5.279,0,0,1,2.057,1.432,3.775,3.775,0,0,1,.854,2.6,4.438,4.438,0,0,1-.758,2.527,5.155,5.155,0,0,1-2.3,1.8,9.355,9.355,0,0,1-3.754.674,12.859,12.859,0,0,1-3.766-.553" transform="translate(-745.388 -177.479)" fill="#fff"/>
        <path id="Path_63894" data-name="Path 63894" d="M980.8,231.72a3.542,3.542,0,0,1-1.287.65,5.8,5.8,0,0,1-1.6.216,4.54,4.54,0,0,1-3.273-1.107,4.26,4.26,0,0,1-1.155-3.225V222.07h-2.118v-2.407h2.118v-2.936h3.008v2.936h3.441v2.407h-3.441v6.113a2.032,2.032,0,0,0,.457,1.432,1.715,1.715,0,0,0,1.324.493,2.642,2.642,0,0,0,1.685-.53Z" transform="translate(-833.166 -185.893)" fill="#fff"/>
        <path id="Path_63895" data-name="Path 63895" d="M1047.929,247.994a6.138,6.138,0,0,1-2.443-2.346,7.017,7.017,0,0,1,0-6.8,6.167,6.167,0,0,1,2.443-2.334,7.8,7.8,0,0,1,7.051,0,6.17,6.17,0,0,1,2.443,2.334,7.016,7.016,0,0,1,0,6.8,6.141,6.141,0,0,1-2.443,2.346,7.8,7.8,0,0,1-7.051,0m6.257-2.84a4.457,4.457,0,0,0,0-5.824,3.677,3.677,0,0,0-2.743-1.107,3.637,3.637,0,0,0-2.732,1.107,4.494,4.494,0,0,0,0,5.824,3.635,3.635,0,0,0,2.732,1.107,3.676,3.676,0,0,0,2.743-1.107" transform="translate(-895.991 -202.143)" fill="#fff"/>
        <path id="Path_63896" data-name="Path 63896" d="M1168.588,235.673v2.864a3.813,3.813,0,0,0-.7-.072,3.633,3.633,0,0,0-2.743,1.023,4.077,4.077,0,0,0-.987,2.948v6.233h-3.008V235.817h2.864v1.877q1.3-2.021,4.572-2.022" transform="translate(-995.954 -202.143)" fill="#fff"/>
        <path id="Path_63897" data-name="Path 63897" d="M1236.156,243.2h-10.084a3.5,3.5,0,0,0,1.384,2.25,4.537,4.537,0,0,0,2.78.83,4.684,4.684,0,0,0,3.49-1.4l1.612,1.853a5.433,5.433,0,0,1-2.19,1.564,8.68,8.68,0,0,1-6.714-.313,6.065,6.065,0,0,1-2.491-2.346,6.624,6.624,0,0,1-.878-3.405,6.725,6.725,0,0,1,.854-3.381,6.063,6.063,0,0,1,2.37-2.346,6.918,6.918,0,0,1,3.417-.842,6.742,6.742,0,0,1,3.357.83,5.882,5.882,0,0,1,2.31,2.334,7.078,7.078,0,0,1,.83,3.478q0,.313-.048.89m-8.892-4.272a3.593,3.593,0,0,0-1.215,2.274h7.292a3.549,3.549,0,0,0-1.179-2.262,3.587,3.587,0,0,0-2.455-.866,3.63,3.63,0,0,0-2.443.854" transform="translate(-1049.057 -202.143)" fill="#fff"/>
      </g>
    </g>
  </g>
</svg>
