<svg xmlns="http://www.w3.org/2000/svg" xmlns:xlink="http://www.w3.org/1999/xlink" width="207.431" height="63.082" viewBox="0 0 207.431 63.082">
  <defs>
    <clipPath id="clip-path">
      <rect id="Rectangle_7109" data-name="Rectangle 7109" width="207.431" height="63.082" fill="#fff"/>
    </clipPath>
  </defs>
  <g id="Group_40676" data-name="Group 40676" transform="translate(-1407.045 -3015.149)">
    <g id="Group_40673" data-name="Group 40673" transform="translate(1407.045 3015.149)" clip-path="url(#clip-path)">
      <path id="Path_64000" data-name="Path 64000" d="M199.413,1.423a6.6,6.6,0,0,1,6.6,6.6V55.063a6.6,6.6,0,0,1-6.6,6.6H8.018a6.6,6.6,0,0,1-6.6-6.6V8.018a6.6,6.6,0,0,1,6.6-6.6Zm0-1.423H8.018A8.018,8.018,0,0,0,0,8.018V55.063a8.018,8.018,0,0,0,8.018,8.018H199.413a8.018,8.018,0,0,0,8.018-8.018V8.018A8.018,8.018,0,0,0,199.413,0" fill="#fff"/>
      <path id="Path_64001" data-name="Path 64001" d="M406.719,84.232H401l-1.253,2.774h-.775l4.534-9.858h.718l4.534,9.858h-.775Zm-.267-.606-2.591-5.689-2.577,5.689Z" transform="translate(-342.212 -66.172)" fill="#fff"/>
      <path id="Path_64002" data-name="Path 64002" d="M473.337,94.768l-3.323,7.351H469.3l-3.309-7.351h.747l2.929,6.576,2.957-6.576Z" transform="translate(-399.69 -81.285)" fill="#fff"/>
      <path id="Path_64003" data-name="Path 64003" d="M527.448,95.068a2.7,2.7,0,0,1,.732,2.049v4.661H527.5v-1.31a2.445,2.445,0,0,1-1.028,1.007,3.411,3.411,0,0,1-1.619.359,2.984,2.984,0,0,1-1.936-.577,2,2,0,0,1-.056-3.006,3.145,3.145,0,0,1,2.091-.57h2.521v-.592a2.071,2.071,0,0,0-.556-1.563,2.258,2.258,0,0,0-1.627-.535,3.92,3.92,0,0,0-1.4.254,3.512,3.512,0,0,0-1.134.676l-.352-.507a3.914,3.914,0,0,1,1.324-.767,4.81,4.81,0,0,1,1.62-.275,2.927,2.927,0,0,1,2.1.7m-.937,5.767a2.571,2.571,0,0,0,.965-1.225V98.23h-2.507a2.494,2.494,0,0,0-1.57.394,1.321,1.321,0,0,0-.486,1.084,1.358,1.358,0,0,0,.535,1.134,2.407,2.407,0,0,0,1.507.415,2.763,2.763,0,0,0,1.556-.422" transform="translate(-447.914 -80.945)" fill="#fff"/>
      <path id="Path_64004" data-name="Path 64004" d="M583.154,75.158a.533.533,0,0,1-.169-.4.577.577,0,0,1,.578-.577.569.569,0,0,1,.408.162.534.534,0,0,1,.169.4.577.577,0,0,1-.577.577.568.568,0,0,1-.408-.162m.056,1.951h.7v7.351h-.7Z" transform="translate(-500.043 -63.625)" fill="#fff"/>
      <rect id="Rectangle_7105" data-name="Rectangle 7105" width="0.704" height="10.449" transform="translate(86.842 10.385)" fill="#fff"/>
      <path id="Path_64005" data-name="Path 64005" d="M636.822,95.068a2.7,2.7,0,0,1,.732,2.049v4.661h-.676v-1.31a2.446,2.446,0,0,1-1.028,1.007,3.411,3.411,0,0,1-1.62.359,2.983,2.983,0,0,1-1.936-.577,2,2,0,0,1-.056-3.006,3.146,3.146,0,0,1,2.091-.57h2.521v-.592a2.07,2.07,0,0,0-.556-1.563,2.258,2.258,0,0,0-1.626-.535,3.92,3.92,0,0,0-1.4.254,3.511,3.511,0,0,0-1.134.676l-.352-.507a3.915,3.915,0,0,1,1.324-.767,4.809,4.809,0,0,1,1.62-.275,2.927,2.927,0,0,1,2.1.7m-.937,5.767a2.571,2.571,0,0,0,.965-1.225V98.23h-2.507a2.494,2.494,0,0,0-1.57.394,1.321,1.321,0,0,0-.486,1.084,1.357,1.357,0,0,0,.535,1.134,2.407,2.407,0,0,0,1.507.415,2.764,2.764,0,0,0,1.556-.422" transform="translate(-541.727 -80.945)" fill="#fff"/>
      <path id="Path_64006" data-name="Path 64006" d="M699.491,76.5a3.368,3.368,0,0,1,1.3,1.324,3.931,3.931,0,0,1,.472,1.936,3.89,3.89,0,0,1-.472,1.929,3.429,3.429,0,0,1-1.3,1.324,3.656,3.656,0,0,1-1.859.479,3.423,3.423,0,0,1-1.781-.472,3.207,3.207,0,0,1-1.232-1.317V83.44h-.676V72.991h.7v4.774a3.17,3.17,0,0,1,1.225-1.274,3.444,3.444,0,0,1,1.76-.458,3.7,3.7,0,0,1,1.859.472m-.38,5.964a2.813,2.813,0,0,0,1.063-1.1,3.522,3.522,0,0,0,0-3.211,2.817,2.817,0,0,0-1.063-1.1,2.962,2.962,0,0,0-1.521-.394,2.924,2.924,0,0,0-1.514.394,2.831,2.831,0,0,0-1.056,1.1,3.523,3.523,0,0,0,0,3.211,2.827,2.827,0,0,0,1.056,1.1,2.923,2.923,0,0,0,1.514.394,2.961,2.961,0,0,0,1.521-.394" transform="translate(-595.214 -62.606)" fill="#fff"/>
      <rect id="Rectangle_7106" data-name="Rectangle 7106" width="0.704" height="10.449" transform="translate(108.233 10.385)" fill="#fff"/>
      <path id="Path_64007" data-name="Path 64007" d="M787.959,98.273h-6.323a3.068,3.068,0,0,0,.437,1.528,2.792,2.792,0,0,0,1.105,1.035,3.323,3.323,0,0,0,1.57.366,3.362,3.362,0,0,0,1.331-.261,2.592,2.592,0,0,0,1.021-.768l.408.465a3.133,3.133,0,0,1-1.2.887,4.192,4.192,0,0,1-3.527-.169,3.47,3.47,0,0,1-1.345-1.324,3.8,3.8,0,0,1-.486-1.929,4,4,0,0,1,.458-1.922,3.376,3.376,0,0,1,1.26-1.331,3.643,3.643,0,0,1,3.6-.007,3.354,3.354,0,0,1,1.253,1.317,3.957,3.957,0,0,1,.458,1.915Zm-4.886-2.936a2.63,2.63,0,0,0-.993.972,3.161,3.161,0,0,0-.429,1.415h5.633a2.947,2.947,0,0,0-.422-1.408,2.735,2.735,0,0,0-2.394-1.324,2.817,2.817,0,0,0-1.394.345" transform="translate(-669.84 -80.946)" fill="#fff"/>
      <path id="Path_64008" data-name="Path 64008" d="M867.272,101.356a3.447,3.447,0,0,1-1.317-1.331,4.1,4.1,0,0,1,0-3.845,3.448,3.448,0,0,1,1.317-1.331,3.929,3.929,0,0,1,3.76,0,3.452,3.452,0,0,1,1.317,1.331,4.1,4.1,0,0,1,0,3.845,3.451,3.451,0,0,1-1.317,1.331,3.931,3.931,0,0,1-3.76,0m3.394-.549a2.832,2.832,0,0,0,1.056-1.1,3.523,3.523,0,0,0,0-3.211,2.836,2.836,0,0,0-1.056-1.1,3.1,3.1,0,0,0-3.028,0,2.832,2.832,0,0,0-1.056,1.1,3.52,3.52,0,0,0,0,3.211,2.828,2.828,0,0,0,1.056,1.1,3.1,3.1,0,0,0,3.028,0" transform="translate(-742.344 -80.945)" fill="#fff"/>
      <path id="Path_64009" data-name="Path 64009" d="M938.262,95.175a3.126,3.126,0,0,1,.8,2.31v4.3h-.7V97.541a2.61,2.61,0,0,0-.627-1.887,2.327,2.327,0,0,0-1.753-.648,2.7,2.7,0,0,0-2.042.775,2.876,2.876,0,0,0-.746,2.084v3.915h-.7V94.428h.676V96.02a2.8,2.8,0,0,1,1.134-1.211,3.493,3.493,0,0,1,1.781-.437,2.949,2.949,0,0,1,2.183.8" transform="translate(-799.822 -80.946)" fill="#fff"/>
      <path id="Path_64010" data-name="Path 64010" d="M1020.886,91.976a1.77,1.77,0,0,1-.669.387,2.632,2.632,0,0,1-.838.134,1.984,1.984,0,0,1-1.479-.528,2,2,0,0,1-.521-1.472v-4.8h-1.352v-.605h1.352V83.484h.7v1.605h2.338v.605h-2.338v4.732a1.554,1.554,0,0,0,.345,1.091,1.323,1.323,0,0,0,1.021.373,1.635,1.635,0,0,0,1.141-.408Z" transform="translate(-871.476 -71.607)" fill="#fff"/>
      <path id="Path_64011" data-name="Path 64011" d="M1069.709,76.836a3.125,3.125,0,0,1,.8,2.31v4.3h-.7V79.2a2.609,2.609,0,0,0-.627-1.887,2.326,2.326,0,0,0-1.753-.648,2.7,2.7,0,0,0-2.042.775,2.876,2.876,0,0,0-.746,2.084V83.44h-.7V72.991h.7v4.633a2.7,2.7,0,0,1,1.127-1.176,3.563,3.563,0,0,1,1.76-.415,2.95,2.95,0,0,1,2.183.8" transform="translate(-912.568 -62.606)" fill="#fff"/>
      <path id="Path_64012" data-name="Path 64012" d="M1132.019,98.273H1125.7a3.065,3.065,0,0,0,.437,1.528,2.79,2.79,0,0,0,1.105,1.035,3.322,3.322,0,0,0,1.57.366,3.362,3.362,0,0,0,1.331-.261,2.593,2.593,0,0,0,1.021-.768l.408.465a3.134,3.134,0,0,1-1.2.887,4.192,4.192,0,0,1-3.527-.169,3.47,3.47,0,0,1-1.345-1.324,3.8,3.8,0,0,1-.486-1.929,4,4,0,0,1,.458-1.922,3.375,3.375,0,0,1,1.26-1.331,3.642,3.642,0,0,1,3.6-.007,3.352,3.352,0,0,1,1.253,1.317,3.957,3.957,0,0,1,.458,1.915Zm-4.887-2.936a2.63,2.63,0,0,0-.993.972,3.159,3.159,0,0,0-.429,1.415h5.633a2.947,2.947,0,0,0-.422-1.408,2.734,2.734,0,0,0-2.394-1.324,2.817,2.817,0,0,0-1.394.345" transform="translate(-964.951 -80.946)" fill="#fff"/>
      <path id="Path_64013" data-name="Path 64013" d="M402.956,217.923h2.893v6.562a9.193,9.193,0,0,1-2.963,1.552,11.378,11.378,0,0,1-3.481.541,9.388,9.388,0,0,1-4.539-1.094,8.121,8.121,0,0,1-3.175-3.022,8.79,8.79,0,0,1,0-8.7,8.1,8.1,0,0,1,3.187-3.022,9.5,9.5,0,0,1,4.574-1.094,9.992,9.992,0,0,1,3.763.682,7.39,7.39,0,0,1,2.846,2l-1.928,1.882a6.187,6.187,0,0,0-4.539-1.882,6.415,6.415,0,0,0-3.093.729,5.315,5.315,0,0,0-2.117,2.046,5.886,5.886,0,0,0-.764,3.01,5.793,5.793,0,0,0,.764,2.964,5.475,5.475,0,0,0,2.117,2.07,6.2,6.2,0,0,0,3.069.753,6.625,6.625,0,0,0,3.387-.847Z" transform="translate(-334.976 -179.818)" fill="#fff"/>
      <path id="Path_64014" data-name="Path 64014" d="M520.411,249.789a6,6,0,0,1-2.387-2.293,6.856,6.856,0,0,1,0-6.644,6.026,6.026,0,0,1,2.387-2.281,7.622,7.622,0,0,1,6.891,0,6.032,6.032,0,0,1,2.387,2.281,6.858,6.858,0,0,1,0,6.644,6,6,0,0,1-2.387,2.293,7.623,7.623,0,0,1-6.891,0m6.115-2.775a4.355,4.355,0,0,0,0-5.692,3.592,3.592,0,0,0-2.681-1.082,3.554,3.554,0,0,0-2.669,1.082,4.393,4.393,0,0,0,0,5.692,3.553,3.553,0,0,0,2.669,1.082,3.592,3.592,0,0,0,2.681-1.082" transform="translate(-443.587 -203.922)" fill="#fff"/>
      <path id="Path_64015" data-name="Path 64015" d="M627.036,249.789a6,6,0,0,1-2.387-2.293,6.858,6.858,0,0,1,0-6.644,6.025,6.025,0,0,1,2.387-2.281,7.622,7.622,0,0,1,6.891,0,6.03,6.03,0,0,1,2.387,2.281,6.858,6.858,0,0,1,0,6.644,6,6,0,0,1-2.387,2.293,7.622,7.622,0,0,1-6.891,0m6.115-2.775a4.355,4.355,0,0,0,0-5.692,3.592,3.592,0,0,0-2.681-1.082,3.554,3.554,0,0,0-2.669,1.082,4.393,4.393,0,0,0,0,5.692,3.553,3.553,0,0,0,2.669,1.082,3.592,3.592,0,0,0,2.681-1.082" transform="translate(-535.043 -203.922)" fill="#fff"/>
      <path id="Path_64016" data-name="Path 64016" d="M743.914,237.888v10.654q0,6.632-6.774,6.632a12.566,12.566,0,0,1-3.434-.459,7.286,7.286,0,0,1-2.681-1.329l1.317-2.211a6.3,6.3,0,0,0,2.082,1.094,8.167,8.167,0,0,0,2.552.412,4.214,4.214,0,0,0,3.034-.941,3.846,3.846,0,0,0,.964-2.869v-.658a4.834,4.834,0,0,1-1.834,1.246,6.466,6.466,0,0,1-2.376.423,6.812,6.812,0,0,1-3.234-.764,5.738,5.738,0,0,1-2.281-2.152,6.036,6.036,0,0,1-.835-3.175,5.976,5.976,0,0,1,.835-3.163,5.685,5.685,0,0,1,2.281-2.129,6.9,6.9,0,0,1,3.234-.753,6.631,6.631,0,0,1,2.481.447,4.582,4.582,0,0,1,1.87,1.364v-1.67Zm-3.963,8.5a3.393,3.393,0,0,0,1.07-2.6,3.329,3.329,0,0,0-1.07-2.564,4.327,4.327,0,0,0-5.5,0,3.328,3.328,0,0,0-1.07,2.564,3.392,3.392,0,0,0,1.07,2.6,4.287,4.287,0,0,0,5.5,0" transform="translate(-626.497 -203.922)" fill="#fff"/>
      <rect id="Rectangle_7107" data-name="Rectangle 7107" width="2.94" height="17.451" transform="translate(121.273 29.074)" fill="#fff"/>
      <path id="Path_64017" data-name="Path 64017" d="M905.706,245.109h-9.855a3.415,3.415,0,0,0,1.352,2.2,4.434,4.434,0,0,0,2.717.811,4.577,4.577,0,0,0,3.41-1.364l1.576,1.811a5.306,5.306,0,0,1-2.14,1.529,8.481,8.481,0,0,1-6.562-.306,5.925,5.925,0,0,1-2.434-2.293,6.471,6.471,0,0,1-.859-3.328,6.573,6.573,0,0,1,.835-3.3,5.925,5.925,0,0,1,2.317-2.293,6.761,6.761,0,0,1,3.34-.823,6.589,6.589,0,0,1,3.281.811,5.748,5.748,0,0,1,2.258,2.281,6.919,6.919,0,0,1,.811,3.4q0,.306-.047.87m-8.69-4.175a3.514,3.514,0,0,0-1.188,2.223h7.126a3.467,3.467,0,0,0-1.152-2.211,3.5,3.5,0,0,0-2.4-.847,3.547,3.547,0,0,0-2.387.835" transform="translate(-765.876 -203.922)" fill="#fff"/>
      <path id="Path_64018" data-name="Path 64018" d="M1061.116,212a5.422,5.422,0,0,1,2.434,2.023,6.179,6.179,0,0,1,0,6.244,5.393,5.393,0,0,1-2.434,2.034,9.117,9.117,0,0,1-3.728.706h-3.716v4.751h-3.057V211.3h6.774a9.117,9.117,0,0,1,3.728.706m-.835,7.573a3.353,3.353,0,0,0,0-4.845,4.7,4.7,0,0,0-3.034-.847h-3.575v6.538h3.575a4.7,4.7,0,0,0,3.034-.847" transform="translate(-901.143 -181.236)" fill="#fff"/>
      <rect id="Rectangle_7108" data-name="Rectangle 7108" width="2.94" height="17.451" transform="translate(166.264 29.074)" fill="#fff"/>
      <path id="Path_64019" data-name="Path 64019" d="M1220.075,239.076a5.137,5.137,0,0,1,1.47,4.01v7.361h-2.775v-1.529a3.42,3.42,0,0,1-1.541,1.258,6.024,6.024,0,0,1-2.411.435,5.912,5.912,0,0,1-2.469-.482,3.813,3.813,0,0,1-1.635-1.341,3.4,3.4,0,0,1-.576-1.94,3.326,3.326,0,0,1,1.258-2.717,6.249,6.249,0,0,1,3.963-1.023h3.246v-.188a2.575,2.575,0,0,0-.788-2.023,3.41,3.41,0,0,0-2.34-.706,6.761,6.761,0,0,0-2.081.329,5.121,5.121,0,0,0-1.729.917l-1.153-2.14a7.142,7.142,0,0,1,2.376-1.152,10.576,10.576,0,0,1,2.94-.4,6.125,6.125,0,0,1,4.245,1.329m-2.681,8.89a2.751,2.751,0,0,0,1.211-1.446v-1.458h-3.034q-2.54,0-2.54,1.67a1.5,1.5,0,0,0,.635,1.27,2.909,2.909,0,0,0,1.764.47,3.8,3.8,0,0,0,1.964-.506" transform="translate(-1037.971 -203.922)" fill="#fff"/>
      <path id="Path_64020" data-name="Path 64020" d="M1312.834,238.739l-5.88,13.571a6.323,6.323,0,0,1-2,2.881,4.789,4.789,0,0,1-2.845.835,5.848,5.848,0,0,1-1.858-.306,4.109,4.109,0,0,1-1.505-.847l1.176-2.164a3.2,3.2,0,0,0,1,.635,3.063,3.063,0,0,0,1.164.235,2,2,0,0,0,1.282-.4,3.545,3.545,0,0,0,.929-1.341l.212-.494-5.48-12.606h3.057l3.951,9.29,3.975-9.29Z" transform="translate(-1113.972 -204.773)" fill="#fff"/>
      <path id="Path_64021" data-name="Path 64021" d="M262.233,191.777l-6.214-3.586-5.11,4.94,4.67,4.515,6.653-3.84a1.172,1.172,0,0,0,0-2.029" transform="translate(-215.212 -161.417)" fill="#fff"/>
      <path id="Path_64022" data-name="Path 64022" d="M147.851,113.819l-6.838-3.947-14.985-7.679,16.925,16.361Z" transform="translate(-108.099 -87.654)" fill="#fff"/>
      <path id="Path_64023" data-name="Path 64023" d="M127.777,244.757l14.762-8.132,6.372-3.678-4.458-4.31Z" transform="translate(-109.598 -196.109)" fill="#fff"/>
      <path id="Path_64024" data-name="Path 64024" d="M118.9,106.846l-.016,33.042,17.1-16.529Z" transform="translate(-101.974 -91.645)" fill="#fff"/>
    </g>
  </g>
</svg>
