<?xml version="1.0" encoding="utf-8"?>
<!-- Generator: Adobe Illustrator 26.0.3, SVG Export Plug-In . SVG Version: 6.00 Build 0)  -->
<svg version="1.1" id="Layer_1" xmlns="http://www.w3.org/2000/svg" xmlns:xlink="http://www.w3.org/1999/xlink" x="0px" y="0px"
	 viewBox="0 0 181 66" style="enable-background:new 0 0 181 66;" xml:space="preserve">
<style type="text/css">
	.st0{enable-background:new    ;}
</style>
<g id="Group_40673" transform="translate(-1149 -55)">
	<g id="Group_40671">
		<g id="Rectangle_1" transform="translate(1149 55)">
			<g>
				<g>
					<path d="M148.2,4c16,0,29,13,29,29s-13,29-29,29h-115c-16,0-29-13-29-29s13-29,29-29H148.2 M148.2,0h-115C15,0,0.2,14.8,0.2,33
						s14.8,33,33,33h115c18.2,0,33-14.8,33-33S166.4,0,148.2,0L148.2,0z"/>
				</g>
			</g>
		</g>
		<g class="st0">
			<path d="M1192.6,101.1c-0.6,0-1.2-0.1-1.7-0.2s-1-0.4-1.4-0.6c-0.4-0.3-0.8-0.6-1.1-1c-0.3-0.4-0.5-0.8-0.7-1.3l1.9-0.8
				c0.2,0.6,0.6,1.1,1.1,1.5c0.5,0.4,1.2,0.6,1.9,0.6c1.1,0,2-0.3,2.6-1c0.6-0.7,0.9-1.6,0.9-2.7v-1h-0.1c-0.4,0.6-0.9,1-1.6,1.4
				c-0.7,0.3-1.4,0.5-2.1,0.5c-1.4,0-2.6-0.5-3.6-1.6c-1-1.1-1.5-2.5-1.5-4.1s0.5-3,1.5-4.1c1-1.1,2.2-1.7,3.6-1.7
				c0.8,0,1.5,0.2,2.1,0.5c0.7,0.3,1.2,0.8,1.6,1.4h0.1v-1.5h1.9v10.3c0,1.7-0.5,3.1-1.5,4.1
				C1195.6,100.6,1194.3,101.1,1192.6,101.1z M1192.7,94.5c1,0,1.8-0.4,2.4-1.1c0.7-0.7,1-1.7,1-2.8c0-1.1-0.3-2.1-1-2.8
				c-0.6-0.7-1.5-1.1-2.4-1.1c-1,0-1.8,0.4-2.4,1.1c-0.7,0.7-1,1.7-1,2.8c0,1.1,0.3,2.1,1,2.8C1190.9,94.1,1191.7,94.5,1192.7,94.5z
				"/>
			<path d="M1205,96.4c-1.6,0-2.9-0.5-3.9-1.6c-1-1.1-1.5-2.5-1.5-4.1c0-1.6,0.5-3,1.5-4.1c1-1.1,2.3-1.6,3.8-1.6
				c1.6,0,2.9,0.5,3.8,1.6c0.9,1,1.4,2.5,1.4,4.3l0,0.2h-8.5c0,1.1,0.4,1.9,1.1,2.6c0.7,0.6,1.5,1,2.4,1c1.3,0,2.3-0.6,3-1.9
				l1.8,0.9c-0.5,0.9-1.2,1.6-2,2.1C1207,96.1,1206.1,96.4,1205,96.4z M1201.7,89.3h6.2c-0.1-0.7-0.4-1.4-0.9-1.9
				c-0.5-0.5-1.3-0.7-2.2-0.7c-0.8,0-1.4,0.2-2,0.7C1202.3,87.9,1201.9,88.5,1201.7,89.3z"/>
			<path d="M1215.6,96.2c-0.9,0-1.6-0.3-2.2-0.8c-0.6-0.5-0.9-1.3-0.9-2.3v-6h-1.9v-1.8h1.9v-3.3h2v3.3h2.6v1.8h-2.6v5.4
				c0,0.7,0.1,1.2,0.4,1.5s0.6,0.4,0.9,0.4c0.2,0,0.3,0,0.5-0.1c0.2,0,0.3-0.1,0.4-0.1l0.6,1.8C1216.9,96.1,1216.3,96.2,1215.6,96.2
				z"/>
			<path d="M1227.6,96.2c-0.9,0-1.6-0.3-2.2-0.8c-0.6-0.5-0.9-1.3-0.9-2.3v-6h-1.9v-1.8h1.9v-3.3h2v3.3h2.6v1.8h-2.6v5.4
				c0,0.7,0.1,1.2,0.4,1.5s0.6,0.4,0.9,0.4c0.2,0,0.3,0,0.5-0.1c0.2,0,0.3-0.1,0.4-0.1l0.6,1.8C1228.9,96.1,1228.3,96.2,1227.6,96.2
				z"/>
			<path d="M1231,80.2h2v5l-0.1,1.5h0.1c0.3-0.5,0.8-1,1.4-1.3c0.6-0.4,1.3-0.5,2-0.5c1.3,0,2.3,0.4,3,1.1c0.7,0.8,1.1,1.8,1.1,3.2
				V96h-2v-6.4c0-1.9-0.9-2.9-2.6-2.9c-0.8,0-1.5,0.3-2.1,1c-0.6,0.7-0.8,1.5-0.8,2.4V96h-2V80.2z"/>
			<path d="M1247.4,96.4c-1.6,0-2.9-0.5-3.9-1.6c-1-1.1-1.5-2.5-1.5-4.1c0-1.6,0.5-3,1.5-4.1c1-1.1,2.3-1.6,3.8-1.6
				c1.6,0,2.9,0.5,3.8,1.6c0.9,1,1.4,2.5,1.4,4.3l0,0.2h-8.5c0,1.1,0.4,1.9,1.1,2.6c0.7,0.6,1.5,1,2.4,1c1.3,0,2.3-0.6,3-1.9
				l1.8,0.9c-0.5,0.9-1.2,1.6-2,2.1S1248.5,96.4,1247.4,96.4z M1244.2,89.3h6.2c-0.1-0.7-0.4-1.4-0.9-1.9c-0.5-0.5-1.3-0.7-2.2-0.7
				c-0.8,0-1.4,0.2-2,0.7C1244.8,87.9,1244.4,88.5,1244.2,89.3z"/>
			<path d="M1262.8,84.9c1.5,0,2.7,0.4,3.5,1.2c0.9,0.8,1.3,1.9,1.3,3.3V96h-1.9v-1.5h-0.1c-0.8,1.2-2,1.8-3.3,1.8
				c-1.2,0-2.2-0.4-3-1.1s-1.2-1.6-1.2-2.6c0-1.1,0.4-2,1.3-2.7c0.8-0.7,2-1,3.4-1c1.2,0,2.2,0.2,3,0.7v-0.5c0-0.7-0.3-1.3-0.8-1.8
				s-1.2-0.7-2-0.7c-1.1,0-2,0.5-2.7,1.4l-1.8-1.1C1259.4,85.6,1260.8,84.9,1262.8,84.9z M1260.1,92.7c0,0.5,0.2,1,0.7,1.3
				c0.4,0.4,1,0.5,1.6,0.5c0.9,0,1.6-0.3,2.3-0.9c0.7-0.6,1-1.4,1-2.2c-0.6-0.5-1.5-0.7-2.6-0.7c-0.8,0-1.5,0.2-2.1,0.6
				C1260.4,91.6,1260.1,92.1,1260.1,92.7z"/>
			<path d="M1275.2,96.4c-0.8,0-1.5-0.2-2.2-0.5c-0.7-0.3-1.2-0.8-1.5-1.3h-0.1l0.1,1.5v4.8h-2V85.2h1.9v1.5h0.1
				c0.4-0.6,0.9-1,1.5-1.3c0.7-0.3,1.4-0.5,2.2-0.5c1.4,0,2.6,0.6,3.6,1.7c1,1.1,1.5,2.5,1.5,4.1c0,1.6-0.5,3-1.5,4.1
				C1277.8,95.8,1276.6,96.4,1275.2,96.4z M1274.9,94.5c1,0,1.8-0.4,2.4-1.1c0.7-0.7,1-1.7,1-2.8c0-1.1-0.3-2.1-1-2.8
				s-1.5-1.1-2.4-1.1c-1,0-1.8,0.4-2.5,1.1c-0.6,0.7-1,1.7-1,2.8c0,1.1,0.3,2.1,1,2.8C1273.1,94.1,1273.9,94.5,1274.9,94.5z"/>
			<path d="M1287.3,96.4c-0.8,0-1.5-0.2-2.2-0.5c-0.7-0.3-1.2-0.8-1.5-1.3h-0.1l0.1,1.5v4.8h-2V85.2h1.9v1.5h0.1
				c0.4-0.6,0.9-1,1.5-1.3c0.7-0.3,1.4-0.5,2.2-0.5c1.4,0,2.6,0.6,3.6,1.7c1,1.1,1.5,2.5,1.5,4.1c0,1.6-0.5,3-1.5,4.1
				C1289.9,95.8,1288.7,96.4,1287.3,96.4z M1287,94.5c1,0,1.8-0.4,2.4-1.1c0.7-0.7,1-1.7,1-2.8c0-1.1-0.3-2.1-1-2.8
				s-1.5-1.1-2.4-1.1c-1,0-1.8,0.4-2.5,1.1c-0.6,0.7-1,1.7-1,2.8c0,1.1,0.3,2.1,1,2.8C1285.2,94.1,1286,94.5,1287,94.5z"/>
		</g>
	</g>
</g>
</svg>
