<svg xmlns="http://www.w3.org/2000/svg" width="44.999" height="44.5" viewBox="0 0 44.999 44.5"><defs><style>.a{fill:#ba2833;}.b{fill:#fff;stroke:rgba(0,0,0,0);stroke-miterlimit:10;}</style></defs><g transform="translate(0.5 0)"><path class="a" d="M163.295,57.6h21.969A15.734,15.734,0,0,1,201,73.337V95.305a6.3,6.3,0,0,1-6.295,6.295H163.295A6.3,6.3,0,0,1,157,95.305h0V63.895A6.3,6.3,0,0,1,163.295,57.6Z" transform="translate(-157 -57.6)"/><path class="b" d="M16.53,41.365,8.107,28.03l2.23-1.407,3.547,5.614A4.951,4.951,0,0,1,16.389,28.2a6.09,6.09,0,0,1,7.123.538,6.426,6.426,0,1,1,2.307,3.653,6.1,6.1,0,0,1-2.572,6.666,4.958,4.958,0,0,1-4.722.526l.939,1.486L19,41.365Zm.85-10.816a3.907,3.907,0,0,0,4.174,6.605,3.772,3.772,0,0,0,1.176-5.362,3.82,3.82,0,0,0-3.242-1.873A3.955,3.955,0,0,0,17.38,30.549Zm10.372-6.488a3.858,3.858,0,1,0,5.281,1.228,3.792,3.792,0,0,0-3.215-1.839A3.859,3.859,0,0,0,27.752,24.061Zm9.175-1.433-6.369-2.995,2.4-1.513,3.985,1.873.02-4.4,2.4-1.511-.032,7.036L44,23.315v2.27l-.334.211L39.3,23.73l-.032,4.843-2.4,1.511ZM0,15.1V11.6l.684-.432,3.6,5.7a5.027,5.027,0,0,1,2.543-4.1,6.321,6.321,0,0,1,8.7,2.217,6.33,6.33,0,0,1-1.739,8.8,5.028,5.028,0,0,1-4.792.534l.953,1.51L7.684,27.263Zm7.833.056A3.828,3.828,0,0,0,6.64,20.6a3.828,3.828,0,0,0,5.427,1.261,3.827,3.827,0,0,0,1.195-5.441,3.882,3.882,0,0,0-3.291-1.9A4,4,0,0,0,7.833,15.154ZM13.243,9.1l2.264-1.429,6.616,10.475-2.262,1.429Zm10.8,8.365L26.3,16.038c.609.964,2.332,1.371,4.175.207C32.448,15,32.9,13.218,31.753,11.4l-.807-1.278a5.1,5.1,0,0,1-2.558,4.165,6.305,6.305,0,0,1-8.633-2.111,6.281,6.281,0,0,1,1.8-8.7,5.1,5.1,0,0,1,4.86-.519L25.44,1.4,27.662,0l6.313,9.993c2.131,3.372.482,6.611-2.2,8.3a7.371,7.371,0,0,1-3.864,1.187A4.391,4.391,0,0,1,24.039,17.466ZM23.273,5.349a3.817,3.817,0,0,0-1.255,5.393,3.82,3.82,0,0,0,5.41,1.186,3.817,3.817,0,0,0,1.255-5.394A3.8,3.8,0,0,0,25.45,4.7,4.071,4.071,0,0,0,23.273,5.349ZM10.6,4.912,12.86,3.483,14.448,6,12.184,7.425Z" transform="translate(0 2.635)"/></g></svg>