<svg xmlns="http://www.w3.org/2000/svg" viewBox="0 0 531.97 171.38"><defs><style>.cls-1{fill:#020202;}</style></defs><g id="Layer_2" data-name="Layer 2"><g id="Layer_1-2" data-name="Layer 1"><path class="cls-1" d="M99.86,84.47c0,27.78-21.21,49.37-46.74,49.37-14.83,0-25.9-6-32.85-16V131.4H0V0H20.27V51.06c7-10,18-16,32.85-16C78.65,35.1,99.86,56.5,99.86,84.47Zm-20.27,0c0-17.46-12.76-30-29.66-30S20.27,67,20.27,84.47s12.77,30,29.66,30S79.59,101.93,79.59,84.47Z"/><path class="cls-1" d="M108.87,0h20.27V22.53H108.87Zm0,37.54h20.27V131.4H108.87Z"/><path class="cls-1" d="M237.83,37.54v89.54c0,30.22-23.66,44.3-47.68,44.3-23.84,0-46.18-13.7-46.18-36.6h20.27c0,8.63,9.39,18.2,25.91,18.2,17.64,0,27.78-9.57,27.78-25.9V115.63C210.8,125.77,199.72,132,184.7,132,159.18,132,138,110.37,138,83.53c0-27,21.22-48.43,46.74-48.43,15,0,26.1,6.2,33.23,16.33V37.54Zm-19.9,46c0-16.89-12.77-29.47-29.85-29.47s-29.84,12.58-29.84,29.47S171,113,188.08,113,217.93,100.43,217.93,83.53Z"/><path class="cls-1" d="M351.39,84.47c0,27.78-21.21,49.37-46.74,49.37-14.83,0-25.9-6-32.85-16V131.4H251.53V0H271.8V51.06c6.95-10,18-16,32.85-16C330.18,35.1,351.39,56.5,351.39,84.47Zm-20.27,0c0-17.46-12.76-30-29.66-30S271.8,67,271.8,84.47s12.77,30,29.66,30S331.12,101.93,331.12,84.47Z"/><path class="cls-1" d="M355.15,84.47c0-28,22.15-49.37,49.55-49.37,27.59,0,49.56,21.4,49.56,49.37,0,27.78-22,49.37-49.56,49.37A49.11,49.11,0,0,1,355.15,84.47Zm78.83,0c0-17.08-12.76-29.66-29.28-29.66s-29.28,12.58-29.28,29.66,12.76,29.66,29.28,29.66S434,101.55,434,84.47Z"/><path class="cls-1" d="M510.2,131.4l-19.9-31.35L470.21,131.4H448.44l31-48.24L450.32,37.54h21.77L490.3,66.07l18.21-28.53h21.77L501.19,83.16,532,131.4Z"/></g></g></svg>