<svg xmlns="http://www.w3.org/2000/svg" xmlns:xlink="http://www.w3.org/1999/xlink" width="439.752" height="264.263" viewBox="0 0 439.752 264.263">
  <defs>
    <clipPath id="clip-path">
      <rect id="Rectangle_7104" data-name="Rectangle 7104" width="439.752" height="264.263" transform="translate(0 0)" fill="none"/>
    </clipPath>
  </defs>
  <g id="Group_40666" data-name="Group 40666" transform="translate(0 -0.001)">
    <g id="Group_40665" data-name="Group 40665" transform="translate(0 0.001)" clip-path="url(#clip-path)">
      <path id="Path_63907" data-name="Path 63907" d="M2800.366,329.345s4.86-.14,7.833,1.183,2.8,2.8,2.778,4.172-5.377,1.309-6.589.785-3.463-3.75-3.576-4.233l-.447-1.908" transform="translate(-2499.825 -293.995)"/>
      <path id="Path_63908" data-name="Path 63908" d="M2797.567,128.984c.3-1.752.928-1.061,1.319.573l.182-1.437c.217-1.272.833-1.271,1.224.017l.378,1.08c-.056-1.919,1.338-1.323,1.605.275-.019-1.151.656-1.407,1.383.456.521,1.335,3.28,15.85.613,24.868l-6-2.227s-.45-3.266-.712-9.222c-.122-6.361-.3-12.586.007-14.382" transform="translate(-2497.175 -113.52)" fill="#fff"/>
      <path id="Path_63909" data-name="Path 63909" d="M2801.59,152.459a.323.323,0,0,1-.112-.02l-6-2.227a.321.321,0,0,1-.207-.258c0-.033-.455-3.349-.714-9.252q-.024-1.235-.049-2.439c-.114-5.588-.211-10.415.06-12.011.1-.593.282-1.277.8-1.294.291-.01.517.221.692.529l.011-.086a.129.129,0,0,0,0-.014c.166-.974.541-1.2.826-1.218s.712.172,1.021,1.188a.746.746,0,0,1,.549-.339,1.246,1.246,0,0,1,1.1.75.589.589,0,0,1,.306-.17c.5-.1.966.426,1.407,1.554.53,1.358,3.307,16,.622,25.076a.322.322,0,0,1-.309.231m-5.705-2.783,5.491,2.038c2.481-8.956-.185-23.01-.7-24.328-.333-.854-.588-1.082-.674-1.138a1.19,1.19,0,0,0-.088.56.322.322,0,0,1-.639.058c-.139-.831-.589-1.224-.748-1.207-.079.008-.237.23-.218.87a.322.322,0,0,1-.626.116l-.378-1.08,0-.013a1.589,1.589,0,0,0-.365-.727,1.432,1.432,0,0,0-.232.664l-.181,1.431a.322.322,0,0,1-.633.035,3.7,3.7,0,0,0-.493-1.3,2.46,2.46,0,0,0-.2.7,115.308,115.308,0,0,0-.051,11.89c.016.8.033,1.616.048,2.431.223,5.069.587,8.215.684,8.994m-1-23.37h0Z" transform="translate(-2494.494 -110.842)"/>
      <path id="Path_63910" data-name="Path 63910" d="M2809.1,152.346a.322.322,0,0,1-.318-.277c-.247-1.743-.437-4.2-.563-7.292a.322.322,0,1,1,.643-.026c.126,3.075.313,5.506.557,7.228a.322.322,0,0,1-.273.364.328.328,0,0,1-.046,0" transform="translate(-2506.837 -128.941)"/>
      <path id="Path_63911" data-name="Path 63911" d="M2825.73,150.333a.322.322,0,0,1-.322-.318c-.023-1.739-.21-4.171-.558-7.228a.322.322,0,1,1,.64-.073c.35,3.078.539,5.532.562,7.292a.322.322,0,0,1-.318.326h0" transform="translate(-2521.679 -127.143)"/>
      <path id="Path_63912" data-name="Path 63912" d="M2840.8,151.6h-.006a.322.322,0,0,1-.316-.327,22.937,22.937,0,0,0-1.173-6.829.322.322,0,1,1,.621-.172,23.754,23.754,0,0,1,1.2,7.011.322.322,0,0,1-.321.316" transform="translate(-2534.57 -128.576)"/>
      <path id="Path_63913" data-name="Path 63913" d="M2637.115,291.257c.968,4.361,9.86,7.377,10.61,5.356-.03,24.577-18.413,29.776-25.412,28.221-6.781-1.506-6.506-38.153,1.409-38.16,8.008-.007,1.451,18.255,10.542,20.664,4.132,1.095,3.6-2.447,2.85-16.081" transform="translate(-2336.575 -255.908)"/>
      <path id="Path_63914" data-name="Path 63914" d="M2861.638,378.4a6.6,6.6,0,0,1-2.708-.808.246.246,0,0,1,.24-.429c.019.011,1.925,1.061,3.064.655a1.105,1.105,0,0,0,.681-.676.246.246,0,0,1,.457.182,1.593,1.593,0,0,1-.974.958,2.268,2.268,0,0,1-.759.119" transform="translate(-2551.991 -336.531)" fill="#fff"/>
      <path id="Path_63915" data-name="Path 63915" d="M2454.514,398.118c-4.254-4.685-10.057-18.033-10.115-18.167l.361-.156c.058.134,5.836,13.422,10.046,18.059Z" transform="translate(-2182.061 -339.034)" fill="#fff"/>
      <path id="Path_63916" data-name="Path 63916" d="M2106.838,1856.077l.192,2.607-30.075,2.465-.226-2.923Z" transform="translate(-1853.851 -1656.88)"/>
      <path id="Path_63917" data-name="Path 63917" d="M2082.319,1645.968l10.769-2.9-1.88,18.568-10.1.305Z" transform="translate(-1857.762 -1466.728)" fill="#fff"/>
      <path id="Path_63918" data-name="Path 63918" d="M2089.826,1639.9l-1.8,17.822-9.457.286,1.164-15.387Zm.735-.865-11.44,3.084-1.252,16.555,10.736-.325Z" transform="translate(-1854.868 -1463.13)"/>
      <path id="Path_63919" data-name="Path 63919" d="M2105.315,1779.153s-.056-6.093-7.018-6.848a34.641,34.641,0,0,1-11.789-3.4,10.269,10.269,0,0,1-6.464,3.869c-4.768.7-1.948-2.755-5.134-2.283l.178,10.421Z" transform="translate(-1852.227 -1579.066)"/>
      <path id="Path_63920" data-name="Path 63920" d="M2276.144,1804.329l-9.094.6-.773-7.818c.879.133,1.829.258,2.849.369,6.962.755,7.018,6.848,7.018,6.848" transform="translate(-2023.056 -1604.243)" fill="#ffba00"/>
      <path id="Path_63921" data-name="Path 63921" d="M2193.047,1778.68a.541.541,0,0,0-.835.336l-.806,3.88a.541.541,0,0,0,1.059.22l.806-3.88a.541.541,0,0,0-.224-.556" transform="translate(-1956.21 -1587.704)" fill="#ffba00"/>
      <path id="Path_63922" data-name="Path 63922" d="M2212.05,1782.626a.541.541,0,0,0-.835.336l-.806,3.88a.54.54,0,1,0,1.058.22l.806-3.88a.54.54,0,0,0-.224-.556" transform="translate(-1973.174 -1591.227)" fill="#ffba00"/>
      <path id="Path_63923" data-name="Path 63923" d="M2231.273,1786.619a.541.541,0,0,0-.835.336l-.806,3.88a.541.541,0,0,0,1.059.22l.806-3.88a.542.542,0,0,0-.224-.556" transform="translate(-1990.334 -1594.792)" fill="#ffba00"/>
      <path id="Path_63924" data-name="Path 63924" d="M2054.086,759.912s5.611-49.278,8.671-91.551c-.627-19.807,7.55-27.344,7.55-27.344s3.036,7.942,17.729,12.165c-5.091,41.7-12.416,102.869-12.416,102.869-6.92,4.88-17.111,5.886-21.533,3.86" transform="translate(-1833.637 -572.222)"/>
      <path id="Path_63925" data-name="Path 63925" d="M2185.221,1850.029l.192,2.607-30.076,2.465-.226-2.923Z" transform="translate(-1923.821 -1651.481)"/>
      <path id="Path_63926" data-name="Path 63926" d="M2139.686,1635.067l13.164-3.679-1.882,18.578-12.488,1.054Z" transform="translate(-1908.974 -1456.305)" fill="#fff"/>
      <path id="Path_63927" data-name="Path 63927" d="M2149.573,1628.189l-1.807,17.843-11.845,1,1.161-15.351Zm.736-.874-13.835,3.867-1.252,16.555,13.131-1.108Z" transform="translate(-1906.066 -1452.668)"/>
      <path id="Path_63928" data-name="Path 63928" d="M2168.372,1773.106s-.056-6.093-7.018-6.848a34.638,34.638,0,0,1-11.788-3.4,9.368,9.368,0,0,1-6.275,4.2c-4.768.7-3.979-2.426-7.165-1.953l.348,9.387Z" transform="translate(-1906.872 -1573.668)"/>
      <path id="Path_63929" data-name="Path 63929" d="M2353.56,1797.454l-9.094.6-.89-7.917c.879.133,1.945.358,2.965.469,6.962.755,7.018,6.848,7.018,6.848" transform="translate(-2092.059 -1598.017)" fill="#ffba00"/>
      <path id="Path_63930" data-name="Path 63930" d="M2271.429,1772.633a.534.534,0,0,0-.2-.083.541.541,0,0,0-.639.419l-.806,3.88a.54.54,0,1,0,1.058.22l.806-3.88a.541.541,0,0,0-.224-.556" transform="translate(-2026.181 -1582.306)" fill="#ffba00"/>
      <path id="Path_63931" data-name="Path 63931" d="M2290.433,1776.578a.54.54,0,0,0-.834.336l-.806,3.88a.54.54,0,0,0,1.058.22l.806-3.88a.54.54,0,0,0-.224-.556" transform="translate(-2043.144 -1585.828)" fill="#ffba00"/>
      <path id="Path_63932" data-name="Path 63932" d="M2309.655,1780.571a.541.541,0,0,0-.834.336l-.806,3.88a.54.54,0,1,0,1.058.22l.806-3.88a.541.541,0,0,0-.224-.556" transform="translate(-2060.304 -1589.393)" fill="#ffba00"/>
      <path id="Path_63933" data-name="Path 63933" d="M2133.093,1796.111l-.221-2.866v-.009l.152-9.462.393.006-.152,9.452.22,2.849Z" transform="translate(-1903.968 -1592.336)" fill="#fff"/>
      <path id="Path_63934" data-name="Path 63934" d="M2113.867,760.967s5.232-53.072,8.07-95.767c-9.084-21.182,10.628-24.9,10.628-24.9s-1.846,6.292,12.972,10.644c-4.887,42.108-12.924,107.22-12.924,107.22-6.939,4.891-13.268,3.562-18.746,2.8" transform="translate(-1887.003 -571.583)"/>
      <rect id="Rectangle_7097" data-name="Rectangle 7097" width="96.106" height="0.393" transform="matrix(0.084, -0.996, 0.996, 0.084, 226.663, 189.367)" fill="#fff"/>
      <path id="Path_63935" data-name="Path 63935" d="M2051.9,323.122c15.713-52.712,41.623-61.211,51.091-62.853,10.429-1.809,17.273.577,17.273.577,8.441,11.814-.735,19.621-14.93,28.03-11.241,6.659-15.4,33.672-15.4,33.672-8.845,6.7-38.031.575-38.031.575" transform="translate(-1831.687 -231.731)"/>
      <path id="Path_63936" data-name="Path 63936" d="M2572.073,235.528l5.2-3.233,3.639,4.117-3.485,2.488-.165,2.668s-5.811-4.409-5.189-6.04" transform="translate(-2295.991 -207.365)" fill="#fff"/>
      <path id="Path_63937" data-name="Path 63937" d="M2574.881,238.719l-.479-.363c-.015-.011-1.483-1.128-2.854-2.431-1.955-1.857-2.753-3.159-2.441-3.98l.039-.1,5.523-3.434,4.055,4.588-3.65,2.606Zm-5.193-6.456c-.033.3.168,1.165,2.3,3.19.873.83,1.788,1.584,2.326,2.014l.136-2.21,3.319-2.369-3.222-3.645Z" transform="translate(-2293.326 -203.896)"/>
      <path id="Path_63938" data-name="Path 63938" d="M2620.294,176.506a4.28,4.28,0,0,0-3.434,3.592,1.6,1.6,0,0,0-.944,1.848,1.772,1.772,0,0,0,1.05,1.562c.676,2.364,2.527,3.984,4.506,3.768,2.29-.25,3.883-2.864,3.557-5.838s-2.445-5.182-4.735-4.932" transform="translate(-2335.157 -157.546)" fill="#fff"/>
      <path id="Path_63939" data-name="Path 63939" d="M2618.43,184.941c-1.923,0-3.684-1.529-4.409-3.865a2.17,2.17,0,0,1-1.107-1.771,1.992,1.992,0,0,1,.995-2.136,4.545,4.545,0,0,1,3.669-3.659c2.464-.269,4.746,2.071,5.09,5.217s-1.38,5.924-3.843,6.193a3.641,3.641,0,0,1-.4.022m-.781-10.792h0a3.968,3.968,0,0,0-3.156,3.344l-.046.2-.2.043c-.46.1-.771.769-.691,1.5a1.468,1.468,0,0,0,.823,1.289l.168.051.048.169c.6,2.111,2.191,3.553,3.852,3.553a2.833,2.833,0,0,0,.31-.017c2.11-.231,3.577-2.69,3.272-5.483s-2.269-4.877-4.38-4.647" transform="translate(-2332.477 -154.869)"/>
      <path id="Path_63940" data-name="Path 63940" d="M2662.947,212.282s-.021-2.651-.878-2.758a6.284,6.284,0,0,0-2.121.3" transform="translate(-2374.477 -187.022)" fill="#fff"/>
      <path id="Path_63941" data-name="Path 63941" d="M2661.812,209.609c-.01-1.24-.294-2.4-.6-2.441a5.98,5.98,0,0,0-1.983.283l-.2-.614a6.538,6.538,0,0,1,2.258-.308c1.055.132,1.155,2.387,1.16,3.075Z" transform="translate(-2373.664 -184.346)"/>
      <path id="Path_63942" data-name="Path 63942" d="M2675.136,252.029a2.182,2.182,0,0,1-1.728.289" transform="translate(-2386.492 -224.981)" fill="#fff"/>
      <path id="Path_63943" data-name="Path 63943" d="M2672.921,250.482a1.667,1.667,0,0,1-.619-.114l.237-.6a1.874,1.874,0,0,0,1.435-.26l.35.54a2.884,2.884,0,0,1-1.4.432" transform="translate(-2385.505 -222.731)"/>
      <path id="Path_63944" data-name="Path 63944" d="M2666.473,220.074a.458.458,0,1,0,.3-.575.458.458,0,0,0-.3.575" transform="translate(-2380.283 -195.923)"/>
      <path id="Path_63945" data-name="Path 63945" d="M2598.191,161.3a5.267,5.267,0,0,1,4.692-5.784c2.417-.252,5.271,1.209,5.979,5.224l-.359-.059c-.013.187-.987-2.653-3.58-2.7.7,3.495-3.25,4.026-3.786,3.541a1.571,1.571,0,0,0-.855,1.686c.053.489-.542.824-.074.952l-.656.277c.087.3-1.152-1.136-1.361-3.137" transform="translate(-2319.322 -138.797)"/>
      <path id="Path_63946" data-name="Path 63946" d="M2601.034,164.852a4.139,4.139,0,0,1-.564-3.014,3.149,3.149,0,0,1,2.6-2.1c.55-.154,1.025-.286,1.212-.609.519-.893-.286-2.115-.294-2.127l.327-.218a2.7,2.7,0,0,1,.307,2.543,2.232,2.232,0,0,1-1.446.79,2.792,2.792,0,0,0-2.327,1.842,3.814,3.814,0,0,0,.521,2.688Z" transform="translate(-2321.282 -139.953)" fill="#fff"/>
      <path id="Path_63947" data-name="Path 63947" d="M2654.225,169.712a.322.322,0,0,1-.311-.239,4.069,4.069,0,0,0-1.613-1.863,2.926,2.926,0,0,0-2.5-.554.322.322,0,0,1-.207-.61,3.56,3.56,0,0,1,3.081.639,4.545,4.545,0,0,1,1.861,2.221.322.322,0,0,1-.311.405" transform="translate(-2365.041 -148.481)"/>
      <path id="Path_63948" data-name="Path 63948" d="M2647.205,158.963a.322.322,0,0,1-.182-.057,6.054,6.054,0,0,0-2.123-.853,3.157,3.157,0,0,0-.975-.07.322.322,0,0,1-.549-.253.379.379,0,0,1,.15-.264c.146-.113.445-.221,1.48-.047a6.616,6.616,0,0,1,2.381.957.322.322,0,0,1-.183.587m-3.186-1.177Zm0,0h0Zm0,0h0Zm0,0h0Zm0,0h0Zm0,0h0Zm0,0h0m0,0h0Z" transform="translate(-2359.684 -140.443)"/>
      <path id="Path_63949" data-name="Path 63949" d="M2146.541,848.347a92,92,0,0,1-12.225-.949l.061-.388c.109.017,10.953,1.679,17.977.555a45.064,45.064,0,0,0,11.064-3.018l.169.355a45.436,45.436,0,0,1-11.171,3.051,38.137,38.137,0,0,1-5.875.394" transform="translate(-1905.257 -753.908)" fill="#fff"/>
      <path id="Path_63950" data-name="Path 63950" d="M2249.124,640.419a1.144,1.144,0,0,1-.837-.337c-1.349-1.341-.035-6.471.021-6.689l.38.1c-.369,1.423-1.112,5.329-.125,6.311a.9.9,0,0,0,.929.169c.794-.211,1.906-.511,3.172-.852,3.471-.936,8.226-2.218,10.7-2.825,1.305-.321,2.1-1.448,2.347-3.348a11.211,11.211,0,0,0-.021-2.837l.388-.062a11.452,11.452,0,0,1,.023,2.95c-.271,2.048-1.185,3.32-2.643,3.678-2.465.606-7.217,1.887-10.687,2.823-1.267.342-2.379.641-3.174.853a1.829,1.829,0,0,1-.469.066" transform="translate(-2006.454 -562.431)" fill="#fff"/>
      <path id="Path_63951" data-name="Path 63951" d="M2681.425,187.111a2.639,2.639,0,0,0,.433,5.26l14.068-1.158-.433-5.26Z" transform="translate(-2391.527 -165.996)" fill="#fff"/>
      <path id="Path_63952" data-name="Path 63952" d="M2678.968,190.024a2.963,2.963,0,0,1-.249-5.912l14.068-1.158a.321.321,0,0,1,.348.294l.433,5.26a.322.322,0,0,1-.294.347l-14.068,1.158c-.079.007-.159.01-.237.01m-.2-5.27a2.318,2.318,0,0,0,.38,4.619l13.747-1.132-.38-4.619Zm-.027-.321h0Z" transform="translate(-2388.849 -163.318)"/>
      <path id="Path_63953" data-name="Path 63953" d="M2709.852,136.175c-3.249.268-5.626,3.6-5.31,7.439s3.207,6.738,6.456,6.471l32.028-2.637-1.146-13.91Z" transform="translate(-2414.26 -119.207)" fill="#fff"/>
      <path id="Path_63954" data-name="Path 63954" d="M2707.9,147.747a5.826,5.826,0,0,1-4.135-1.806,8.229,8.229,0,0,1-.844-10.25,5.766,5.766,0,0,1,4.228-2.513l32.028-2.637a.322.322,0,0,1,.347.294l1.146,13.91a.322.322,0,0,1-.295.347l-32.028,2.637q-.224.019-.446.018m-.726-14.249.026.321a5.131,5.131,0,0,0-3.756,2.246,7.586,7.586,0,0,0,.776,9.421,5.131,5.131,0,0,0,4.073,1.6L2740,144.476l-1.092-13.268-31.708,2.611Z" transform="translate(-2411.581 -116.529)"/>
      <path id="Path_63955" data-name="Path 63955" d="M3020.442,136.134c.384,4.662-1.623,8.631-4.481,8.867s-5.487-3.353-5.871-8.014,1.622-8.631,4.481-8.867,5.487,3.353,5.871,8.014" transform="translate(-2687 -114.36)" fill="#bd5a00"/>
      <path id="Path_63956" data-name="Path 63956" d="M3325.723,3l-25.664,5.542v0c-3.222.619-5.359,6.21-4.815,12.8.563,6.813,3.783,12.109,7.193,11.829h0l25.823.553Z" transform="translate(-2941.516 -2.678)" fill="#fff"/>
      <path id="Path_63957" data-name="Path 63957" d="M3325.585,31.368h-.007l-25.806-.553c-1.768.141-3.528-1.069-4.951-3.41a20.357,20.357,0,0,1-2.574-8.715,20.655,20.655,0,0,1,1.015-8.775c.932-2.465,2.354-4.008,4.008-4.352a.316.316,0,0,1,.045-.013L3322.978.008a.324.324,0,0,1,.26.056.32.32,0,0,1,.129.232l2.54,30.723a.322.322,0,0,1-.321.348m-25.823-1.2h.007l25.466.545-2.481-30L3297.5,6.169a.316.316,0,0,1-.057.017c-1.448.279-2.719,1.684-3.58,3.958a20,20,0,0,0-.976,8.494,19.706,19.706,0,0,0,2.484,8.433c1.291,2.123,2.84,3.225,4.359,3.1h.032" transform="translate(-2938.84 -0.001)"/>
      <path id="Path_63958" data-name="Path 63958" d="M3534.635,17.569c.7,8.484-2.172,15.644-6.417,15.992s-8.256-6.247-8.958-14.731,2.171-15.644,6.417-15.992,8.256,6.247,8.958,14.731" transform="translate(-3141.472 -2.522)"/>
      <path id="Path_63959" data-name="Path 63959" d="M3531.87,28.716c.7,8.484-1.818,14.722-3.96,14.882-3.21.239-7.935-5.5-8.637-13.988s2.265-14.437,5.473-14.7,6.423,5.322,7.124,13.806" transform="translate(-3141.485 -13.302)" fill="#fff"/>
      <path id="Path_63960" data-name="Path 63960" d="M3525.04,41.247c-3.554,0-8.079-6.1-8.756-14.291a23.614,23.614,0,0,1,1.293-10.581c1.1-2.7,2.732-4.323,4.474-4.466,3.571-.294,6.782,5.769,7.471,14.1.576,6.968-.991,12.283-2.691,14.273a2.376,2.376,0,0,1-1.567.957c-.074.006-.15.008-.226.008m-2.742-28.7q-.1,0-.194.008c-1.492.122-2.925,1.605-3.931,4.068a22.964,22.964,0,0,0-1.248,10.285,21.435,21.435,0,0,0,3.323,10.111c1.572,2.321,3.473,3.693,4.969,3.582a1.81,1.81,0,0,0,1.125-.733c1.616-1.892,3.1-7.017,2.539-13.8A26.834,26.834,0,0,0,3526.3,16c-1.195-2.242-2.608-3.461-4-3.461" transform="translate(-3138.817 -10.622)"/>
      <path id="Path_63961" data-name="Path 63961" d="M3525.526,4h0l.041,0c1.587-.131,3.337,1.136,4.8,3.477a23.205,23.205,0,0,1,3.059,10.2,23.269,23.269,0,0,1-1.339,10.524c-1.054,2.548-2.564,4.1-4.144,4.251l-.041,0c-1.587.131-3.337-1.136-4.8-3.477a23.2,23.2,0,0,1-3.059-10.2,23.265,23.265,0,0,1,1.339-10.524c1.054-2.548,2.564-4.1,4.144-4.251m.093-1.154c-4.213.409-7.057,7.542-6.359,15.987.7,8.484,4.712,15.079,8.958,14.731l.059-.005c4.213-.409,7.058-7.542,6.359-15.987-.7-8.484-4.712-15.079-8.958-14.731l-.059.005" transform="translate(-3141.472 -2.521)"/>
      <path id="Path_63962" data-name="Path 63962" d="M2920.345,49.307l-24.232,5.233v0c-3.042.585-5.06,5.864-4.546,12.081.532,6.432,3.573,11.433,6.792,11.169h0l24.382.522Z" transform="translate(-2581.167 -44.015)" fill="#fff"/>
      <path id="Path_63963" data-name="Path 63963" d="M2920.066,75.96h-.007l-24.365-.522c-1.68.131-3.344-1.015-4.69-3.228a19.238,19.238,0,0,1-2.434-8.236,19.525,19.525,0,0,1,.959-8.293c.882-2.333,2.229-3.794,3.8-4.121a.328.328,0,0,1,.044-.013l24.232-5.233a.321.321,0,0,1,.388.288l2.4,29.009a.322.322,0,0,1-.321.348m-24.38-1.166h.005l24.025.514-2.339-28.287-23.825,5.145a.325.325,0,0,1-.055.016c-1.361.262-2.557,1.585-3.366,3.726a18.878,18.878,0,0,0-.92,8.012,18.587,18.587,0,0,0,2.342,7.955c1.216,2,2.671,3.038,4.1,2.92h.03" transform="translate(-2578.49 -41.338)"/>
      <path id="Path_63964" data-name="Path 63964" d="M3117.695,62.776c.671,8.124-2.034,14.976-6.043,15.3s-7.8-5.99-8.475-14.114,2.034-14.976,6.043-15.3,7.8,5.99,8.475,14.114" transform="translate(-2770.047 -43.429)" fill="#bd5a00"/>
      <path id="Path_63965" data-name="Path 63965" d="M3109.165,48.667c-3.979.387-6.657,7.213-5.988,15.3.671,8.124,4.466,14.443,8.475,14.114l.054,0c3.979-.386,6.657-7.213,5.989-15.3-.672-8.124-4.466-14.443-8.475-14.114l-.055,0" transform="translate(-2770.047 -43.429)"/>
      <path id="Path_63966" data-name="Path 63966" d="M3143.775,9.152l-27.015,5.834v0c-3.391.652-5.641,6.537-5.068,13.468.593,7.171,3.982,12.746,7.571,12.451h0l27.182.582Z" transform="translate(-2777.66 -8.17)" fill="#fff"/>
      <path id="Path_63967" data-name="Path 63967" d="M3143.771,39.136h-.007l-27.166-.582q-.145.012-.291.012c-1.756,0-3.489-1.263-4.906-3.592a21.405,21.405,0,0,1-2.708-9.166,21.72,21.72,0,0,1,1.067-9.229c.979-2.59,2.472-4.21,4.207-4.571a.326.326,0,0,1,.046-.014l27.015-5.834a.322.322,0,0,1,.388.288l2.674,32.34a.322.322,0,0,1-.321.348m-27.182-1.226h.007l26.825.574-2.614-31.618L3114.2,12.611a.316.316,0,0,1-.058.017c-1.531.294-2.873,1.778-3.781,4.177a21.071,21.071,0,0,0-1.028,8.949,20.768,20.768,0,0,0,2.616,8.885c1.363,2.241,3,3.4,4.605,3.273l.032,0" transform="translate(-2774.983 -5.492)"/>
      <path id="Path_63968" data-name="Path 63968" d="M3363.788,24.168c.749,9.057-2.267,16.7-6.737,17.063s-8.7-6.678-9.448-15.735,2.267-16.7,6.737-17.062,8.7,6.678,9.448,15.735" transform="translate(-2988.23 -7.516)"/>
      <path id="Path_63969" data-name="Path 63969" d="M3361.121,35.339c.738,8.93-1.725,15.4-4.947,15.662s-7.592-5.619-8.33-14.549,2.493-15.743,5.715-16.007,6.824,5.963,7.562,14.894" transform="translate(-2988.452 -18.244)" fill="#fff"/>
      <path id="Path_63970" data-name="Path 63970" d="M3353.292,48.651c-1.687,0-3.6-1.47-5.164-3.987a24.874,24.874,0,0,1-3.281-10.866,26.109,26.109,0,0,1,1.394-11.4c1.179-3.006,2.861-4.813,4.616-4.957,3.641-.3,7.193,6.514,7.91,15.188a29.1,29.1,0,0,1-1,11.21c-.989,2.952-2.494,4.657-4.238,4.8-.076.006-.154.009-.232.009m-2.212-30.572c-.057,0-.114,0-.17.007-1.479.121-3,1.822-4.069,4.55a25.464,25.464,0,0,0-1.351,11.109,24.209,24.209,0,0,0,3.187,10.579c1.507,2.424,3.3,3.8,4.8,3.675,1.45-.119,2.791-1.709,3.68-4.363a28.442,28.442,0,0,0,.973-10.952c-.731-8.848-4.193-14.606-7.045-14.606" transform="translate(-2985.776 -15.564)"/>
      <path id="Path_63971" data-name="Path 63971" d="M3354.374,9.383h0l.045,0c1.721-.141,3.6,1.266,5.161,3.86a26.043,26.043,0,0,1,3.2,11.01,26.078,26.078,0,0,1-1.336,11.344c-1.1,2.811-2.714,4.519-4.427,4.685l-.045,0c-1.722.141-3.6-1.266-5.161-3.86a26.039,26.039,0,0,1-3.2-11.01,26.081,26.081,0,0,1,1.335-11.344c1.1-2.811,2.715-4.519,4.428-4.685m-.094-.945c-4.435.431-7.421,8.042-6.676,17.057.749,9.057,4.979,16.1,9.448,15.735l.061-.005c4.435-.431,7.421-8.042,6.676-17.057-.748-9.057-4.979-16.1-9.448-15.735l-.061.005" transform="translate(-2988.231 -7.515)"/>
      <path id="Path_63972" data-name="Path 63972" d="M2482.759,291.723s1.98,1.682.848,6.935S2468.6,325.4,2468.6,325.4s12.6-17.334,16.664-23.927a12.972,12.972,0,0,0,.53-12.257Z" transform="translate(-2203.663 -258.179)" fill="#fff"/>
      <path id="Path_63973" data-name="Path 63973" d="M2466.607,321.446l-.531-.364c.139-.214,13.86-21.5,14.966-26.638,1.068-4.959-.726-6.607-.744-6.624l-.283-.249.289-.242,3.335-2.755.186.346a13.044,13.044,0,0,1,1.194,3.921,12.753,12.753,0,0,1-1.734,8.658c-4.021,6.528-16.552,23.774-16.678,23.947m14.365-33.834c.53.684,1.62,2.695.7,6.968-.667,3.1-5.593,11.586-9.635,18.2,3.846-5.406,8.525-12.091,10.7-15.622a12.113,12.113,0,0,0,1.649-8.2,13.384,13.384,0,0,0-.958-3.376Z" transform="translate(-2201.412 -254.033)"/>
      <path id="Path_63974" data-name="Path 63974" d="M2572.459,250.445l2.315-1.439,3.733,4.316-3.737,4.362Z" transform="translate(-2296.378 -222.282)" fill="#fff"/>
      <path id="Path_63975" data-name="Path 63975" d="M2571.452,254.849l-2.562-8.028,2.761-1.717,4.094,4.733Zm-1.8-7.746,2.059,6.45,3.181-3.713-3.372-3.9Z" transform="translate(-2293.191 -218.8)"/>
      <path id="Path_63976" data-name="Path 63976" d="M2628.927,281.707l1.341,2.354-.052-3.437Z" transform="translate(-2346.785 -250.506)" fill="#fff"/>
      <path id="Path_63977" data-name="Path 63977" d="M2627.177,279.63l-2.094-3.676,2.013-1.693Zm-1.269-3.528.587,1.031-.023-1.506Z" transform="translate(-2343.354 -244.827)"/>
      <path id="Path_63978" data-name="Path 63978" d="M2595.319,293.215l.175-2.05-1.17-1.947-1.34,1.717.8,2.4-3.6,38.574,6.677,9.2,5.427-9.118Z" transform="translate(-2312.196 -258.178)" fill="#ffba00"/>
      <rect id="Rectangle_7098" data-name="Rectangle 7098" width="1.542" height="0.644" transform="translate(281.562 34.834) rotate(-4.409)"/>
      <rect id="Rectangle_7099" data-name="Rectangle 7099" width="4.479" height="0.644" transform="translate(280.573 43.49) rotate(-41.211)"/>
      <rect id="Rectangle_7100" data-name="Rectangle 7100" width="7.508" height="0.644" transform="matrix(0.782, -0.623, 0.623, 0.782, 279.623, 53.781)"/>
      <rect id="Rectangle_7101" data-name="Rectangle 7101" width="10.61" height="0.644" transform="translate(278.668 64.007) rotate(-38.35)"/>
      <rect id="Rectangle_7102" data-name="Rectangle 7102" width="13.858" height="0.644" transform="translate(277.773 73.484) rotate(-40.574)"/>
      <rect id="Rectangle_7103" data-name="Rectangle 7103" width="10.456" height="0.644" transform="translate(281.72 78.935) rotate(-41.764)"/>
      <path id="Path_63979" data-name="Path 63979" d="M2779.784,337.3s4.859-.14,7.833,1.183,2.8,2.8,2.778,4.172-5.377,1.309-6.588.785-3.463-3.75-3.576-4.233l-.446-1.908" transform="translate(-2481.453 -301.098)"/>
      <path id="Path_63980" data-name="Path 63980" d="M2776.985,136.941c.3-1.752.928-1.061,1.319.573l.182-1.437c.216-1.272.832-1.271,1.224.017l.378,1.08c-.055-1.918,1.338-1.323,1.605.275-.019-1.151.656-1.407,1.384.456.521,1.335,3.28,15.85.613,24.868l-6-2.227s-.449-3.266-.712-9.222c-.122-6.361-.3-12.586.007-14.382" transform="translate(-2478.802 -120.623)" fill="#fff"/>
      <path id="Path_63981" data-name="Path 63981" d="M2781.008,160.417a.32.32,0,0,1-.112-.02l-6-2.227a.322.322,0,0,1-.207-.258c0-.033-.455-3.349-.714-9.252q-.024-1.237-.049-2.442c-.114-5.587-.211-10.412.06-12.008.1-.593.282-1.277.8-1.294.292-.011.517.221.693.529l.011-.086s0-.009,0-.014c.166-.974.54-1.2.825-1.218s.711.173,1.021,1.188a.746.746,0,0,1,.549-.339,1.246,1.246,0,0,1,1.1.75.588.588,0,0,1,.306-.17c.494-.1.966.426,1.406,1.554.531,1.358,3.307,16,.622,25.076a.322.322,0,0,1-.309.231m-5.705-2.783,5.491,2.038c2.481-8.956-.185-23.01-.7-24.328-.333-.854-.588-1.082-.674-1.138a1.19,1.19,0,0,0-.088.56.322.322,0,0,1-.64.058c-.139-.831-.588-1.223-.748-1.207-.079.008-.237.23-.218.869a.322.322,0,0,1-.626.116l-.378-1.08,0-.013a1.593,1.593,0,0,0-.365-.727,1.43,1.43,0,0,0-.233.664l-.18,1.43a.322.322,0,0,1-.633.035,3.712,3.712,0,0,0-.493-1.3,2.463,2.463,0,0,0-.2.7,115.361,115.361,0,0,0-.051,11.887c.016.8.032,1.618.048,2.435.223,5.069.587,8.215.684,8.994m-1-23.37h0Z" transform="translate(-2476.121 -117.946)"/>
      <path id="Path_63982" data-name="Path 63982" d="M2788.52,160.3a.322.322,0,0,1-.318-.277c-.247-1.743-.437-4.2-.563-7.292a.322.322,0,0,1,.643-.026c.125,3.074.313,5.505.558,7.228a.322.322,0,0,1-.274.364.332.332,0,0,1-.046,0" transform="translate(-2488.464 -136.045)"/>
      <path id="Path_63983" data-name="Path 63983" d="M2805.148,158.29a.322.322,0,0,1-.322-.318c-.023-1.739-.21-4.171-.558-7.228a.322.322,0,1,1,.64-.073c.351,3.078.54,5.532.562,7.292a.322.322,0,0,1-.318.326h0" transform="translate(-2503.307 -134.246)"/>
      <path id="Path_63984" data-name="Path 63984" d="M2820.214,159.555h-.006a.323.323,0,0,1-.317-.328,22.918,22.918,0,0,0-1.173-6.828.322.322,0,0,1,.621-.172,23.746,23.746,0,0,1,1.2,7.011.322.322,0,0,1-.322.316" transform="translate(-2516.198 -135.679)"/>
      <path id="Path_63985" data-name="Path 63985" d="M2463.509,301.884c.968,4.361,9.86,7.377,10.61,5.356-.031,24.577-19.5,28.844-26.5,27.29-6.781-1.506-13.6-10.992-17.267-15.767-6.07-7.9-6.64-14.632-.715-19.881,7.936-7.031,10.38,17.566,19.471,19.975,4.132,1.095,15.152-3.338,14.4-16.972" transform="translate(-2165.177 -265.68)"/>
      <path id="Path_63986" data-name="Path 63986" d="M2841.056,386.362a6.6,6.6,0,0,1-2.708-.808.246.246,0,0,1,.24-.429c.019.011,1.925,1.06,3.064.655a1.107,1.107,0,0,0,.681-.676.246.246,0,0,1,.457.182,1.593,1.593,0,0,1-.974.958,2.267,2.267,0,0,1-.759.119" transform="translate(-2533.618 -343.634)" fill="#fff"/>
      <path id="Path_63987" data-name="Path 63987" d="M2433.932,406.075c-4.254-4.685-10.057-18.033-10.115-18.167l.361-.156c.058.134,5.836,13.422,10.046,18.059Z" transform="translate(-2163.688 -346.137)" fill="#fff"/>
      <path id="Path_63988" data-name="Path 63988" d="M2670.159,459.7l-.075-.386a14.257,14.257,0,0,0,5.108-2.086c1.791-1.446,2.441-2.1,2.447-2.105l.28.276c-.026.027-.667.672-2.48,2.135a14.364,14.364,0,0,1-5.28,2.166" transform="translate(-2383.525 -406.274)" fill="#fff"/>
      <path id="Path_63989" data-name="Path 63989" d="M2550.306,370.663a.245.245,0,0,1-.191-.091,49.871,49.871,0,0,1-2.876-4.1c-1.639-2.567-4.094-7.864-4.119-7.917a.246.246,0,1,1,.446-.206c.025.053,2.466,5.32,4.087,7.859a49.468,49.468,0,0,0,2.844,4.056.246.246,0,0,1-.191.4" transform="translate(-2270.168 -319.762)" fill="#fff"/>
      <path id="Path_63990" data-name="Path 63990" d="M1110.259,1080.89l63.43-102.943,76.377,92.876Z" transform="translate(-991.104 -872.992)" fill="#fff"/>
      <path id="Path_63991" data-name="Path 63991" d="M1107.582,1078.534a.322.322,0,0,1-.274-.491l63.43-102.943a.322.322,0,0,1,.523-.036l76.377,92.876a.322.322,0,0,1-.225.526L1107.6,1078.533h-.023m63.468-102.712-62.864,102.023,138.559-9.977Z" transform="translate(-988.426 -870.314)"/>
      <path id="Path_63992" data-name="Path 63992" d="M1703.757,1080.23l-2.469-102.283,12.772,101.564Z" transform="translate(-1518.702 -872.992)" fill="#fff"/>
      <path id="Path_63993" data-name="Path 63993" d="M1701.079,1077.874a.322.322,0,0,1-.322-.314l-2.469-102.283a.322.322,0,0,1,.641-.048l12.772,101.564a.322.322,0,0,1-.3.361l-10.3.719h-.023m-1.994-96.242,2.308,95.575,9.627-.672Z" transform="translate(-1516.024 -870.314)"/>
      <path id="Path_63994" data-name="Path 63994" d="M467.033,1207.647l136.225,9.345,136.628-36.834-62.3,79.694-140.744,10.86Z" transform="translate(-416.91 -1053.501)" fill="#fff"/>
      <path id="Path_63995" data-name="Path 63995" d="M534.161,1268.354a.322.322,0,0,1-.216-.083l-69.807-63.065a.322.322,0,0,1,.238-.56l136.171,9.341,136.575-36.82a.322.322,0,0,1,.338.509l-62.3,79.694a.321.321,0,0,1-.229.123l-140.744,10.86h-.025m-68.9-63,69.013,62.348,140.465-10.838,61.62-78.821-135.7,36.582a.319.319,0,0,1-.106.01Z" transform="translate(-414.231 -1050.822)"/>
      <path id="Path_63996" data-name="Path 63996" d="M1114.8,1571.159a.322.322,0,0,1-.2-.572l66.419-54.149a.323.323,0,0,1,.365-.029L1255.7,1559.7a.322.322,0,0,1-.324.557l-74.133-43.177L1115,1571.087a.322.322,0,0,1-.2.072" transform="translate(-994.866 -1353.627)"/>
      <path id="Path_63997" data-name="Path 63997" d="M603.013,1830.527c21.74,0,24.9,26.516,66.621,26.516s37.869-22.363,72.231-22.363c33.661,0,34.187,24.6,65.92,24.6,29.559,0,26.444-22.762,72.927-22.762,48.879,0,31.627,24.2,88.413,24.2l1.438,37.618H594.627Z" transform="translate(-530.81 -1634.071)" fill="#fff"/>
      <path id="Path_63998" data-name="Path 63998" d="M438.314,1858.362c-14.462,0-26.475-1.567-36.727-4.79-8.972-2.821-15.5-6.568-21.253-9.873-8.911-5.118-16.606-9.537-30.433-9.537-25.763,0-36.257,7.035-45.515,13.242a64.687,64.687,0,0,1-11.544,6.633,40.469,40.469,0,0,1-15.868,2.887,45.005,45.005,0,0,1-18.862-3.771,71.454,71.454,0,0,1-13.2-8.32c-4.142-3.068-8.426-6.241-13.718-8.59a48.743,48.743,0,0,0-20.141-3.918c-16.252,0-23.872,5.011-31.939,10.316-9.007,5.923-18.321,12.047-40.292,12.047-10.235,0-18.649-1.6-25.723-4.886-6.23-2.9-10.594-6.655-14.814-10.291-3.469-2.988-6.745-5.81-10.79-7.9a32.093,32.093,0,0,0-15.295-3.437c-13.245,0-21.441,5.53-30.118,11.385-5.089,3.434-10.351,6.984-16.943,9.692a64.186,64.186,0,0,1-24.82,4.56.322.322,0,0,1,0-.644,63.553,63.553,0,0,0,24.575-4.511c6.531-2.682,11.765-6.214,16.827-9.63,8.761-5.912,17.036-11.5,30.478-11.5,13.161,0,19.643,5.584,26.5,11.5,4.187,3.607,8.516,7.337,14.665,10.195,6.987,3.248,15.312,4.826,25.451,4.826,21.778,0,31.01-6.071,39.938-11.942,8.15-5.359,15.849-10.422,32.293-10.422,17.185,0,25.856,6.423,34.242,12.635a70.956,70.956,0,0,0,13.08,8.251,44.378,44.378,0,0,0,18.6,3.714c13.016,0,19.521-4.361,27.053-9.411,9.335-6.258,19.915-13.351,45.874-13.351,14,0,21.763,4.459,30.754,9.622,6.008,3.45,12.221,7.018,21.125,9.817,10.188,3.2,22.139,4.76,36.534,4.76a.322.322,0,0,1,0,.644" transform="translate(0 -1631.394)"/>
      <path id="Path_63999" data-name="Path 63999" d="M656.361,2092.779c-14.528,0-26.625-1.58-36.983-4.83-9.057-2.842-15.651-6.608-21.469-9.931-8.87-5.065-16.53-9.439-29.961-9.439a72.108,72.108,0,0,0-24.783,3.983,96.278,96.278,0,0,0-16.95,8.513c-8.913,5.28-17.332,10.267-31.194,10.267a45,45,0,0,1-18.862-3.771,71.46,71.46,0,0,1-13.2-8.32c-4.142-3.068-8.426-6.241-13.718-8.59a48.739,48.739,0,0,0-20.141-3.919c-16.252,0-23.872,5.011-31.939,10.316-9.007,5.922-18.321,12.047-40.292,12.047a79.847,79.847,0,0,1-29.844-5.427c-8.063-3.181-14.668-7.363-20.5-11.053-8.506-5.386-15.852-10.037-24.907-10.037a.322.322,0,0,1,0-.644c9.242,0,16.661,4.7,25.252,10.137,5.8,3.675,12.381,7.839,20.387,11a79.22,79.22,0,0,0,29.608,5.382c21.778,0,31.01-6.071,39.938-11.942,8.15-5.359,15.849-10.422,32.293-10.422,17.185,0,25.856,6.423,34.242,12.635a70.945,70.945,0,0,0,13.08,8.25,44.376,44.376,0,0,0,18.6,3.714c13.686,0,22.031-4.943,30.866-10.177a96.807,96.807,0,0,1,17.06-8.564,72.74,72.74,0,0,1,25-4.021c13.6,0,21.331,4.414,30.28,9.524,5.79,3.306,12.353,7.053,21.343,9.875,10.294,3.23,22.328,4.8,36.79,4.8a.322.322,0,1,1,0,.644" transform="translate(-251.112 -1840.653)"/>
    </g>
  </g>
</svg>
