<svg xmlns="http://www.w3.org/2000/svg" width="34.905" height="28.568" viewBox="0 0 34.905 28.568">
  <g id="Group_40670" data-name="Group 40670" transform="translate(-391.888 -3612.149)">
    <path id="twitter-2" d="M34.905,3.816c-2.2.1-2.148.093-2.4.114L33.81.216s-4.059,1.493-5.088,1.76A8.144,8.144,0,0,0,19.13,1.2a6.643,6.643,0,0,0-3.193,6.83A17.718,17.718,0,0,1,4.459,1.573L3.5.417l-.72,1.321a7.985,7.985,0,0,0-.851,5.376,7.723,7.723,0,0,0,.748,2.1l-.826-.32-.1,1.38A7.365,7.365,0,0,0,3,14.65a7.785,7.785,0,0,0,.973,1.2l-.427-.066.521,1.582a7.689,7.689,0,0,0,3.952,4.579c-1.843.782-3.332,1.281-5.779,2.086L0,24.768,2.068,25.9A21.708,21.708,0,0,0,8.4,28.2c6.12.96,13.01.178,17.648-4,3.907-3.519,5.189-8.524,4.923-13.733a3.254,3.254,0,0,1,.608-2.119C32.442,7.194,34.9,3.823,34.905,3.816ZM29.94,7.126a5.3,5.3,0,0,0-1.014,3.448c.269,5.254-1.161,9.328-4.249,12.11-3.608,3.249-9.427,4.525-15.964,3.5a15.832,15.832,0,0,1-3.42-1.016,54.238,54.238,0,0,0,6.2-2.546l3.572-1.691-3.944-.252a5.578,5.578,0,0,1-4.429-2.523,7.074,7.074,0,0,0,1.5-.25l3.762-1.048-3.793-.929a5.649,5.649,0,0,1-3.451-2.4,5.786,5.786,0,0,1-.748-1.65,9.469,9.469,0,0,0,1.539.246l3.511.347L6.226,10.3A5.855,5.855,0,0,1,4.008,4.13,20.348,20.348,0,0,0,18.346,10.3a12.11,12.11,0,0,0-.21-1.735A4.7,4.7,0,0,1,20.2,2.946a6.108,6.108,0,0,1,7.206.6,1.83,1.83,0,0,0,1.679.449,14.134,14.134,0,0,0,1.384-.421L29.588,6.09h1.126Zm0,0" transform="translate(391.888 3612.148)" fill="#fff"/>
  </g>
</svg>
